<svg width="682" height="671" viewBox="0 0 682 671" fill="none" xmlns="http://www.w3.org/2000/svg">
<g filter="url(#filter0_d_188_449)">
<path d="M384.346 51.5868C410.844 40.9156 440.381 42.8642 467.993 52.619C495.605 62.3742 521.097 79.875 539.337 99.9862H539.338C558.009 120.565 571.593 146.803 571.25 174.712C571.041 191.673 564.934 207.493 558.02 223.758C551.165 239.884 543.485 256.502 540.795 274.484C535.557 309.441 539.361 345.882 552.485 378.798L552.486 378.799C555.92 387.398 559.63 395.869 563.279 404.277C566.934 412.7 570.532 421.069 573.778 429.534C580.267 446.46 585.308 463.674 586.516 482.176V482.177C589.938 534.373 547.968 576.881 496.933 580.31H496.932C472.079 581.985 447.74 577.341 423.096 572.21C398.556 567.1 373.672 561.496 348.22 561.572C332.778 561.618 317.204 563.214 301.995 564.178C286.699 565.146 271.627 565.49 256.754 563.129C232.917 559.343 216.78 548.247 205.187 532.734C193.521 517.124 186.385 496.947 180.85 474.932C178.087 463.941 175.737 452.555 173.413 441.107C171.092 429.677 168.794 418.177 166.147 407.044C160.944 385.158 154.331 364.406 143.274 347.936L142.744 347.156C140.605 344.024 138.307 340.959 135.849 337.963C122.761 322.002 106.744 308.179 91.8374 294.076C76.8451 279.892 62.8691 265.338 53.2974 247.634L53.2964 247.632L52.4761 246.091C35.4617 213.615 32.8126 174.372 45.186 139.461C53.9003 114.878 69.1905 97.9375 88.6597 88.4384C108.165 78.9217 132.083 76.7698 158.164 82.204V82.205C174.584 85.6379 190.431 90.6354 206.971 94.8055C223.376 98.9416 240.16 102.17 257.768 101.803L257.767 101.802C291.246 101.104 322.291 86.776 349.795 70.4012C361.278 63.5661 372.215 56.474 384.346 51.5868Z" fill="#2298FF" stroke="black" stroke-width="5"/>
<path d="M432.745 143.851C434.94 151.744 429.7 156.254 413.876 159.261V136.371C423.578 135.863 430.828 136.739 432.745 143.851Z" fill="#F79268"/>
<path d="M424.404 105.625C439.631 110.485 437.184 119.961 431.448 124.82C428.298 127.452 420.435 130.458 413.876 132.661V105.565C418.797 105.031 422.461 105.005 424.404 105.625Z" fill="#F79268"/>
<path d="M428.212 210.585C434.019 215.908 426.893 227.259 413.876 232.63V207.717C419.311 207.507 425.359 207.973 428.212 210.585Z" fill="#F79268"/>
<path d="M433.474 174.382C433.474 179.644 428.674 184.391 413.876 186.688V163.832L421.57 163.689C428.697 163.531 433.474 167.992 433.474 174.382Z" fill="#F79268"/>
<path d="M413.877 232.641V258.704C413.866 265.639 411.106 272.286 406.202 277.19C401.299 282.093 394.651 284.853 387.716 284.864H307.413C310.353 282.735 313.456 280.84 316.693 279.196H387.731C393.164 279.189 398.372 277.028 402.212 273.186C406.053 269.344 408.214 264.136 408.22 258.704V235.126C410.501 234.085 412.354 233.246 413.73 232.709L413.877 232.641Z" fill="#005E60"/>
<path d="M413.876 207.718V232.641L413.715 232.709C412.354 233.261 410.486 234.085 408.205 235.126V208.169C409.873 207.969 411.832 207.796 413.876 207.718Z" fill="#005E60"/>
<path d="M413.876 186.692V207.718C411.832 207.796 409.873 207.969 408.205 208.157V187.402C410.242 187.203 412.129 186.966 413.876 186.692Z" fill="#005E60"/>
<path d="M413.876 163.835V186.692C412.129 186.966 410.242 187.203 408.205 187.402V163.944L413.876 163.835Z" fill="#005E60"/>
<path d="M413.876 159.276V163.835L408.205 163.944V160.231C410.231 159.93 412.117 159.614 413.876 159.276Z" fill="#005E60"/>
<path d="M413.876 136.386V159.276C412.117 159.614 410.231 159.93 408.205 160.231V136.796C410.17 136.63 412.065 136.484 413.876 136.386Z" fill="#005E60"/>
<path d="M413.876 132.661V136.386C412.065 136.484 410.17 136.63 408.205 136.792V134.488C409.836 133.984 411.79 133.364 413.876 132.661Z" fill="#005E60"/>
<path d="M413.876 105.565V132.661C411.79 133.364 409.836 133.984 408.205 134.488V106.298C410.238 106.005 412.136 105.753 413.876 105.565Z" fill="#005E60"/>
<path d="M413.876 41.1565V105.565C412.136 105.753 410.238 106.005 408.204 106.317V41.1565C408.202 35.7218 406.044 30.5101 402.202 26.6658C398.361 22.8216 393.151 20.659 387.716 20.653H298.707C293.275 20.659 288.067 22.8195 284.226 26.6605C280.385 30.5016 278.225 35.7094 278.219 41.1414V148.447C276.482 150.56 274.532 152.894 272.551 155.183V117.927C275.321 107.222 276.877 97.8032 275.062 93.4958C274.371 91.8152 273.53 90.2 272.551 88.6696V41.1565C272.566 34.2253 275.327 27.5825 280.229 22.6828C285.132 17.7831 291.776 15.0259 298.707 15.015H387.716C394.647 15.0259 401.292 17.783 406.195 22.6826C411.099 27.5822 413.86 34.225 413.876 41.1565Z" fill="#005E60"/>
<path d="M408.219 235.114V258.692C408.213 264.125 406.053 269.333 402.212 273.175C398.371 277.016 393.163 279.178 387.731 279.185H316.692C317.407 278.809 318.136 278.471 318.876 278.132C337.752 269.476 388.456 244.124 408.219 235.114Z" fill="#032233"/>
<path d="M408.22 208.157V235.114C388.472 244.135 337.767 269.491 318.891 278.132C318.14 278.471 317.422 278.824 316.708 279.185H298.722C293.29 279.178 288.082 277.016 284.241 273.175C280.4 269.333 278.24 264.125 278.234 258.692V148.447C280.226 146.019 281.936 143.888 283.094 142.46C287.649 136.765 370.945 111.955 408.22 106.298V134.488C405.498 135.326 403.687 135.833 403.687 135.833L404.254 160.576V160.779L404.329 164.019L408.216 163.944V187.402C406.487 187.575 404.656 187.718 402.709 187.831L403.194 201.839V208.887C403.194 208.887 405.235 208.496 408.22 208.157Z" fill="#032233"/>
<path d="M408.219 187.402V208.157C405.25 208.496 403.198 208.887 403.198 208.887V201.839L402.713 187.831C404.645 187.718 406.475 187.575 408.219 187.402Z" fill="#032233"/>
<path d="M408.219 160.231V163.944L404.333 164.019L404.258 160.78C405.623 160.604 406.944 160.421 408.219 160.231Z" fill="#032233"/>
<path d="M408.219 136.796V160.235C406.954 160.422 405.633 160.605 404.258 160.783V137.134L408.219 136.796Z" fill="#032233"/>
<path d="M408.219 134.488V136.795L404.254 137.134V160.58L403.687 135.837C403.687 135.837 405.483 135.326 408.219 134.488Z" fill="#032233"/>
<path d="M408.22 41.1566V106.313C370.945 111.951 287.649 136.781 283.094 142.475C281.936 143.903 280.226 146.034 278.234 148.462V41.1566C278.236 35.7245 280.393 30.5151 284.231 26.6712C288.069 22.8274 293.275 20.663 298.707 20.6531H387.716C393.153 20.6551 398.367 22.8159 402.212 26.6606C406.057 30.5053 408.218 35.7193 408.22 41.1566ZM354.929 29.5235C354.93 29.0587 354.793 28.6042 354.535 28.2173C354.278 27.8305 353.911 27.5289 353.482 27.3505C353.053 27.1721 352.58 27.125 352.124 27.2153C351.668 27.3055 351.249 27.5289 350.92 27.8573C350.591 28.1857 350.367 28.6043 350.276 29.0601C350.185 29.5159 350.232 29.9884 350.409 30.4179C350.587 30.8473 350.888 31.2145 351.275 31.4727C351.661 31.731 352.115 31.8689 352.58 31.8689C353.2 31.8659 353.794 31.6175 354.231 31.178C354.669 30.7385 354.914 30.1436 354.914 29.5235H354.929ZM347.318 29.5235C347.318 28.9005 347.071 28.303 346.63 27.8624C346.189 27.4219 345.592 27.1743 344.969 27.1743H333.535C333.219 27.1617 332.903 27.213 332.608 27.3253C332.312 27.4375 332.042 27.6084 331.814 27.8276C331.585 28.0468 331.404 28.3099 331.28 28.601C331.156 28.8921 331.092 29.2052 331.092 29.5216C331.092 29.838 331.156 30.1512 331.28 30.4423C331.404 30.7334 331.585 30.9964 331.814 31.2156C332.042 31.4348 332.312 31.6057 332.608 31.7179C332.903 31.8302 333.219 31.8815 333.535 31.8689H344.954C345.576 31.8689 346.173 31.6219 346.614 31.1822C347.054 30.7424 347.302 30.1459 347.303 29.5235H347.318Z" fill="#032233"/>
<path d="M404.239 160.577L404.243 160.78H404.239V160.577Z" fill="#032233"/>
<path d="M352.565 27.1743C353.03 27.1736 353.484 27.3107 353.871 27.5684C354.258 27.8261 354.56 28.1927 354.738 28.6219C354.917 29.0511 354.964 29.5235 354.873 29.9795C354.783 30.4354 354.56 30.8543 354.231 31.1833C353.903 31.5122 353.484 31.7363 353.029 31.8272C352.573 31.9182 352.1 31.8719 351.671 31.6942C351.241 31.5165 350.874 31.2154 350.616 30.829C350.358 30.4426 350.22 29.9883 350.22 29.5235C350.219 29.2152 350.28 28.9098 350.397 28.6248C350.515 28.3398 350.688 28.0808 350.905 27.8626C351.123 27.6444 351.382 27.4713 351.667 27.3532C351.952 27.2351 352.257 27.1743 352.565 27.1743Z" fill="#575756"/>
<path d="M344.954 27.1742C345.27 27.1616 345.585 27.2129 345.881 27.3252C346.177 27.4375 346.447 27.6083 346.675 27.8275C346.903 28.0467 347.085 28.3098 347.209 28.6009C347.333 28.892 347.397 29.2051 347.397 29.5215C347.397 29.8379 347.333 30.1511 347.209 30.4422C347.085 30.7333 346.903 30.9963 346.675 31.2155C346.447 31.4347 346.177 31.6056 345.881 31.7178C345.585 31.8301 345.27 31.8815 344.954 31.8688H333.535C333.219 31.8815 332.903 31.8301 332.607 31.7178C332.312 31.6056 332.042 31.4347 331.813 31.2155C331.585 30.9963 331.404 30.7333 331.28 30.4422C331.156 30.1511 331.092 29.8379 331.092 29.5215C331.092 29.2051 331.156 28.892 331.28 28.6009C331.404 28.3098 331.585 28.0467 331.813 27.8275C332.042 27.6083 332.312 27.4375 332.607 27.3252C332.903 27.2129 333.219 27.1616 333.535 27.1742H344.954Z" fill="#575756"/>
<path d="M298.707 279.185H316.692C313.456 280.829 310.353 282.724 307.412 284.853H298.707C291.773 284.842 285.126 282.082 280.223 277.178C275.32 272.275 272.561 265.627 272.551 258.693V155.213C274.532 152.924 276.482 150.59 278.219 148.477V258.708C278.229 264.137 280.391 269.342 284.231 273.18C288.072 277.018 293.277 279.178 298.707 279.185Z" fill="#005E60"/>
<path d="M298.707 284.853H307.412C293.569 294.783 284.282 307.908 268.42 314.253C248.578 322.191 223.632 398.071 223.632 398.071L165.564 307.525C181.486 285.172 204.779 258.715 207.624 249.788C209.933 260.653 215.822 270.429 224.346 277.55C224.429 277.618 224.535 277.651 224.643 277.642C224.75 277.632 224.849 277.58 224.917 277.497C224.951 277.456 224.977 277.408 224.992 277.357C225.008 277.306 225.013 277.253 225.008 277.2C225.002 277.147 224.987 277.095 224.962 277.048C224.936 277.001 224.902 276.96 224.861 276.926C216.349 269.813 210.516 260.011 208.323 249.138C208.304 249.036 208.246 248.946 208.162 248.886C208.078 248.826 207.974 248.8 207.872 248.815C209.484 240.61 211.255 214.122 212.863 197.787C214.483 181.347 213.754 173.085 218.37 167.342C222.422 162.204 245.549 119.31 253.837 99.4871L269.315 84.896C270.578 85.9781 271.671 87.2454 272.555 88.6547V117.931C267.293 138.273 257.637 163.245 258.381 166.696C259.069 169.89 265.988 162.794 272.555 155.202V258.696C272.566 265.629 275.324 272.275 280.226 277.178C285.129 282.081 291.774 284.841 298.707 284.853ZM255.896 254.596C268.608 231.048 270.615 202.038 261.267 176.998C261.229 176.897 261.153 176.816 261.056 176.771C260.958 176.726 260.846 176.721 260.745 176.758C260.644 176.795 260.563 176.872 260.518 176.97C260.474 177.068 260.47 177.179 260.508 177.28C269.777 202.087 267.789 230.863 255.186 254.208C255.151 254.271 255.133 254.343 255.135 254.415C255.137 254.487 255.158 254.558 255.196 254.619C255.235 254.68 255.289 254.73 255.353 254.762C255.418 254.795 255.49 254.81 255.562 254.806C255.631 254.803 255.698 254.782 255.757 254.745C255.816 254.708 255.864 254.657 255.896 254.596Z" fill="#F79268"/>
<path d="M275.062 93.477C276.877 97.8032 275.321 107.222 272.551 117.908V88.6321C273.531 90.1684 274.372 91.7899 275.062 93.477Z" fill="#005E60"/>
<path d="M269.311 84.8922L253.833 99.4833C254.825 97.1191 255.599 95.0819 256.11 93.4695C259.399 83.1106 264.639 81.0659 269.311 84.8922Z" fill="#F79268"/>
<path d="M264.451 79.9533C265.679 80.1568 266.811 80.7444 267.685 81.6319C268.558 82.5193 269.127 83.6608 269.311 84.8922C264.643 81.0659 259.399 83.1106 256.11 93.477C255.599 95.0819 254.825 97.1191 253.833 99.4908L253.761 99.5585C251.484 92.7478 260.076 78.9798 264.451 79.9533Z" fill="#032233"/>
<path d="M261.256 177.013C270.604 202.053 268.597 231.063 255.885 254.611C255.851 254.674 255.8 254.728 255.737 254.765C255.675 254.802 255.604 254.821 255.532 254.821C255.459 254.825 255.387 254.81 255.323 254.777C255.259 254.745 255.205 254.695 255.166 254.634C255.128 254.573 255.106 254.502 255.105 254.43C255.103 254.358 255.12 254.286 255.156 254.223C267.758 230.878 269.747 202.121 260.478 177.295C260.44 177.194 260.444 177.083 260.488 176.985C260.533 176.887 260.614 176.81 260.715 176.773C260.766 176.751 260.821 176.741 260.876 176.742C260.932 176.743 260.986 176.755 261.037 176.777C261.087 176.8 261.133 176.832 261.171 176.873C261.208 176.913 261.237 176.961 261.256 177.013Z" fill="#D36944"/>
<path d="M224.861 276.929C224.902 276.963 224.937 277.005 224.962 277.052C224.987 277.099 225.002 277.15 225.008 277.203C225.013 277.257 225.008 277.31 224.992 277.361C224.977 277.412 224.951 277.46 224.918 277.501C224.849 277.583 224.75 277.635 224.643 277.645C224.536 277.655 224.429 277.622 224.346 277.553C215.822 270.432 209.933 260.657 207.624 249.792C207.712 249.525 207.783 249.252 207.838 248.976C207.838 248.924 207.861 248.871 207.868 248.818C207.971 248.804 208.075 248.83 208.159 248.89C208.243 248.95 208.3 249.04 208.319 249.142C210.514 260.016 216.348 269.817 224.861 276.929Z" fill="#D36944"/>
<path d="M207.883 248.803C207.883 248.856 207.864 248.909 207.853 248.961C207.798 249.237 207.727 249.51 207.639 249.777C207.601 249.612 207.571 249.446 207.537 249.281C207.517 249.176 207.54 249.067 207.6 248.978C207.659 248.89 207.752 248.828 207.857 248.807L207.883 248.803Z" fill="#D36944"/>
<path d="M391.681 70.8274V122.047C391.681 122.67 391.559 123.288 391.32 123.865C391.081 124.441 390.731 124.965 390.29 125.406C389.849 125.847 389.325 126.197 388.749 126.436C388.172 126.675 387.554 126.798 386.931 126.798H300.605C299.981 126.798 299.364 126.675 298.787 126.436C298.211 126.197 297.687 125.847 297.246 125.406C296.805 124.965 296.455 124.441 296.216 123.865C295.977 123.288 295.854 122.67 295.854 122.047V70.8274C295.854 69.5673 296.355 68.3589 297.246 67.4679C298.137 66.577 299.345 66.0764 300.605 66.0764H386.931C388.191 66.0764 389.399 66.577 390.29 67.4679C391.181 68.3589 391.681 69.5673 391.681 70.8274ZM379.188 100.337C379.188 100.038 379.069 99.7507 378.857 99.5392C378.646 99.3278 378.359 99.209 378.06 99.209H363.916C363.617 99.209 363.33 99.3278 363.119 99.5392C362.907 99.7507 362.789 100.038 362.789 100.337C362.789 100.636 362.907 100.922 363.119 101.134C363.33 101.345 363.617 101.464 363.916 101.464H378.06C378.359 101.464 378.646 101.345 378.857 101.134C379.069 100.922 379.188 100.636 379.188 100.337ZM378.906 114.503C378.906 114.28 378.818 114.067 378.66 113.909C378.503 113.751 378.29 113.662 378.068 113.661H373.038C372.815 113.661 372.601 113.75 372.443 113.908C372.285 114.066 372.197 114.28 372.197 114.503C372.197 114.726 372.285 114.94 372.443 115.098C372.601 115.256 372.815 115.345 373.038 115.345H378.068C378.179 115.344 378.289 115.322 378.392 115.278C378.494 115.235 378.587 115.171 378.665 115.091C378.742 115.012 378.803 114.917 378.844 114.814C378.885 114.71 378.904 114.599 378.902 114.488L378.906 114.503ZM370.385 114.503C370.385 114.28 370.296 114.066 370.138 113.908C369.98 113.75 369.766 113.661 369.543 113.661H363.924C363.7 113.661 363.486 113.75 363.328 113.908C363.171 114.066 363.082 114.28 363.082 114.503C363.082 114.726 363.171 114.94 363.328 115.098C363.486 115.256 363.7 115.345 363.924 115.345H369.543C369.655 115.345 369.765 115.323 369.869 115.279C369.972 115.236 370.065 115.173 370.144 115.093C370.222 115.013 370.284 114.919 370.325 114.815C370.367 114.711 370.387 114.6 370.385 114.488V114.503ZM359.428 100.337C359.428 100.038 359.31 99.7507 359.098 99.5392C358.887 99.3278 358.6 99.209 358.301 99.209H344.161C343.862 99.209 343.575 99.3278 343.363 99.5392C343.152 99.7507 343.033 100.038 343.033 100.337C343.033 100.636 343.152 100.922 343.363 101.134C343.575 101.345 343.862 101.464 344.161 101.464H358.301C358.6 101.464 358.887 101.345 359.098 101.134C359.31 100.922 359.428 100.636 359.428 100.337ZM344.608 114.503C344.608 114.28 344.52 114.067 344.363 113.909C344.206 113.751 343.992 113.662 343.77 113.661H329.626C329.403 113.661 329.189 113.75 329.031 113.908C328.873 114.066 328.784 114.28 328.784 114.503C328.784 114.726 328.873 114.94 329.031 115.098C329.189 115.256 329.403 115.345 329.626 115.345H343.77C343.882 115.345 343.992 115.323 344.095 115.279C344.198 115.236 344.291 115.173 344.369 115.093C344.447 115.013 344.509 114.918 344.55 114.814C344.591 114.711 344.611 114.6 344.608 114.488V114.503ZM339.673 100.337C339.673 100.038 339.554 99.7507 339.343 99.5392C339.131 99.3278 338.844 99.209 338.545 99.209H324.401C324.102 99.209 323.816 99.3278 323.604 99.5392C323.393 99.7507 323.274 100.038 323.274 100.337C323.274 100.636 323.393 100.922 323.604 101.134C323.816 101.345 324.102 101.464 324.401 101.464H338.545C338.844 101.464 339.131 101.345 339.343 101.134C339.554 100.922 339.673 100.636 339.673 100.337ZM325.251 114.503C325.251 114.28 325.162 114.066 325.004 113.908C324.846 113.75 324.632 113.661 324.409 113.661H304.653C304.43 113.661 304.216 113.75 304.058 113.908C303.9 114.066 303.812 114.28 303.812 114.503C303.812 114.726 303.9 114.94 304.058 115.098C304.216 115.256 304.43 115.345 304.653 115.345H324.401C324.514 115.346 324.626 115.324 324.73 115.282C324.834 115.239 324.928 115.176 325.007 115.096C325.086 115.016 325.149 114.921 325.191 114.816C325.232 114.712 325.253 114.6 325.251 114.488V114.503ZM319.914 100.337C319.914 100.038 319.795 99.7507 319.583 99.5392C319.372 99.3278 319.085 99.209 318.786 99.209H304.646C304.347 99.209 304.06 99.3278 303.849 99.5392C303.637 99.7507 303.518 100.038 303.518 100.337C303.518 100.636 303.637 100.922 303.849 101.134C304.06 101.345 304.347 101.464 304.646 101.464H318.786C319.085 101.464 319.372 101.345 319.583 101.134C319.795 100.922 319.914 100.636 319.914 100.337ZM316.741 85.7079V78.5664C316.745 78.372 316.711 78.1787 316.64 77.9977C316.569 77.8167 316.462 77.6515 316.327 77.5118C316.192 77.372 316.03 77.2604 315.852 77.1834C315.673 77.1063 315.481 77.0654 315.287 77.063H306.108C305.914 77.0654 305.722 77.1063 305.543 77.1834C305.364 77.2604 305.203 77.372 305.068 77.5118C304.932 77.6515 304.826 77.8167 304.755 77.9977C304.684 78.1787 304.649 78.372 304.653 78.5664V87.1399C304.649 87.3345 304.683 87.528 304.754 87.7092C304.825 87.8905 304.931 88.0559 305.067 88.1957C305.202 88.3356 305.364 88.4472 305.542 88.524C305.721 88.6009 305.914 88.6415 306.108 88.6434H315.287C315.481 88.6415 315.674 88.6009 315.852 88.524C316.031 88.4472 316.193 88.3356 316.328 88.1957C316.464 88.0559 316.57 87.8905 316.641 87.7092C316.712 87.528 316.746 87.3345 316.741 87.1399V85.7079Z" fill="#FEE600"/>
<path d="M378.067 99.209C378.366 99.209 378.653 99.3278 378.865 99.5392C379.076 99.7507 379.195 100.038 379.195 100.337C379.195 100.636 379.076 100.922 378.865 101.134C378.653 101.345 378.366 101.464 378.067 101.464H363.923C363.624 101.464 363.338 101.345 363.126 101.134C362.915 100.922 362.796 100.636 362.796 100.337C362.796 100.038 362.915 99.7507 363.126 99.5392C363.338 99.3278 363.624 99.209 363.923 99.209H378.067Z" fill="#02354C"/>
<path d="M378.067 113.646C378.291 113.646 378.505 113.735 378.663 113.893C378.821 114.05 378.909 114.265 378.909 114.488C378.909 114.711 378.821 114.925 378.663 115.083C378.505 115.241 378.291 115.33 378.067 115.33H373.038C372.815 115.33 372.601 115.241 372.443 115.083C372.285 114.925 372.196 114.711 372.196 114.488C372.196 114.265 372.285 114.05 372.443 113.893C372.601 113.735 372.815 113.646 373.038 113.646H378.067Z" fill="#02354C"/>
<path d="M369.543 113.646C369.767 113.646 369.981 113.735 370.139 113.893C370.296 114.05 370.385 114.265 370.385 114.488C370.385 114.711 370.296 114.925 370.139 115.083C369.981 115.241 369.767 115.33 369.543 115.33H363.924C363.701 115.33 363.487 115.241 363.329 115.083C363.171 114.925 363.082 114.711 363.082 114.488C363.082 114.265 363.171 114.05 363.329 113.893C363.487 113.735 363.701 113.646 363.924 113.646H369.543Z" fill="#02354C"/>
<path d="M358.308 99.209C358.607 99.209 358.894 99.3278 359.105 99.5392C359.317 99.7507 359.436 100.038 359.436 100.337C359.436 100.636 359.317 100.922 359.105 101.134C358.894 101.345 358.607 101.464 358.308 101.464H344.168C343.869 101.464 343.582 101.345 343.371 101.134C343.159 100.922 343.041 100.636 343.041 100.337C343.041 100.038 343.159 99.7507 343.371 99.5392C343.582 99.3278 343.869 99.209 344.168 99.209H358.308Z" fill="#02354C"/>
<path d="M343.77 113.646C343.993 113.646 344.207 113.735 344.365 113.893C344.523 114.05 344.612 114.265 344.612 114.488C344.612 114.711 344.523 114.925 344.365 115.083C344.207 115.241 343.993 115.33 343.77 115.33H329.626C329.403 115.33 329.189 115.241 329.031 115.083C328.873 114.925 328.784 114.711 328.784 114.488C328.784 114.265 328.873 114.05 329.031 113.893C329.189 113.735 329.403 113.646 329.626 113.646H343.77Z" fill="#02354C"/>
<path d="M338.553 99.209C338.852 99.209 339.139 99.3278 339.35 99.5392C339.562 99.7507 339.68 100.038 339.68 100.337C339.68 100.636 339.562 100.922 339.35 101.134C339.139 101.345 338.852 101.464 338.553 101.464H324.402C324.102 101.464 323.816 101.345 323.604 101.134C323.393 100.922 323.274 100.636 323.274 100.337C323.274 100.038 323.393 99.7507 323.604 99.5392C323.816 99.3278 324.102 99.209 324.402 99.209H338.553Z" fill="#02354C"/>
<path d="M324.402 113.646C324.625 113.646 324.839 113.735 324.997 113.893C325.155 114.05 325.244 114.265 325.244 114.488C325.244 114.711 325.155 114.925 324.997 115.083C324.839 115.241 324.625 115.33 324.402 115.33H304.646C304.423 115.33 304.209 115.241 304.051 115.083C303.893 114.925 303.804 114.711 303.804 114.488C303.804 114.265 303.893 114.05 304.051 113.893C304.209 113.735 304.423 113.646 304.646 113.646H324.402Z" fill="#02354C"/>
<path d="M318.794 99.209C319.093 99.209 319.379 99.3278 319.591 99.5392C319.802 99.7507 319.921 100.038 319.921 100.337C319.921 100.636 319.802 100.922 319.591 101.134C319.379 101.345 319.093 101.464 318.794 101.464H304.653C304.354 101.464 304.068 101.345 303.856 101.134C303.645 100.922 303.526 100.636 303.526 100.337C303.526 100.038 303.645 99.7507 303.856 99.5392C304.068 99.3278 304.354 99.209 304.653 99.209H318.794Z" fill="#02354C"/>
<path d="M316.741 85.6777V87.1135C316.746 87.3081 316.712 87.5016 316.641 87.6829C316.57 87.8641 316.464 88.0294 316.328 88.1693C316.193 88.3092 316.031 88.4208 315.853 88.4976C315.674 88.5745 315.481 88.615 315.287 88.617H313.501V85.6777H316.726H316.741Z" fill="#C1FF00"/>
<path d="M316.742 85.5199V85.6929H313.502V88.6208H313.332V85.6778C313.027 85.6231 312.746 85.4752 312.528 85.2545C312.31 85.0338 312.166 84.751 312.115 84.445H309.179C309.128 84.751 308.984 85.0338 308.766 85.2545C308.548 85.4752 308.267 85.6231 307.961 85.6778V88.6208H307.792V85.6778H304.639V85.5049H307.721C307.894 85.5039 308.064 85.4689 308.224 85.4019C308.383 85.3349 308.527 85.2371 308.649 85.1143C308.77 84.9914 308.866 84.8459 308.932 84.6859C308.997 84.5259 309.03 84.3546 309.029 84.1819V82.7573H304.639V82.5844H309.029V81.1674C309.03 80.9947 308.997 80.8234 308.932 80.6634C308.866 80.5034 308.77 80.3579 308.649 80.235C308.527 80.1122 308.383 80.0144 308.224 79.9474C308.064 79.8804 307.894 79.8454 307.721 79.8444H304.639V79.6752H307.792V77.0442H307.961V79.6752C308.292 79.7352 308.594 79.9044 308.817 80.1558C309.041 80.4073 309.174 80.7264 309.194 81.0622H312.1C312.12 80.7264 312.253 80.4073 312.477 80.1558C312.7 79.9044 313.001 79.7352 313.332 79.6752V77.0442H313.502V79.6752H316.727V79.8444H313.573C313.4 79.8454 313.229 79.8804 313.07 79.9474C312.911 80.0144 312.766 80.1122 312.645 80.235C312.524 80.3579 312.427 80.5034 312.362 80.6634C312.297 80.8234 312.264 80.9947 312.265 81.1674V82.592H316.727V82.7649H312.265V84.1894C312.264 84.3622 312.297 84.5334 312.362 84.6934C312.427 84.8534 312.524 84.999 312.645 85.1218C312.766 85.2447 312.911 85.3424 313.07 85.4094C313.229 85.4764 313.4 85.5115 313.573 85.5125L316.742 85.5199ZM312.115 84.2683C312.113 84.2446 312.113 84.2207 312.115 84.1969V81.2614H309.217V84.1969C309.219 84.2207 309.219 84.2446 309.217 84.2683H312.115Z" fill="#FF9100"/>
<path d="M316.741 82.7723V85.5199H313.588C313.415 85.5189 313.244 85.4839 313.085 85.4169C312.926 85.3499 312.781 85.2522 312.66 85.1293C312.538 85.0064 312.442 84.8608 312.377 84.7009C312.312 84.5409 312.279 84.3696 312.28 84.1969V82.7723H316.741Z" fill="#C1FF00"/>
<path d="M316.741 79.8519V82.5995H312.28V81.1674C312.279 80.9947 312.312 80.8234 312.377 80.6634C312.442 80.5034 312.538 80.3579 312.66 80.235C312.781 80.1121 312.926 80.0144 313.085 79.9474C313.244 79.8803 313.415 79.8453 313.588 79.8444L316.741 79.8519Z" fill="#C1FF00"/>
<path d="M316.741 78.5551V79.6827H313.501V77.0516H315.272C315.468 77.0521 315.661 77.0915 315.842 77.1677C316.022 77.2438 316.185 77.3551 316.322 77.4951C316.459 77.6351 316.566 77.8009 316.638 77.9829C316.71 78.1649 316.745 78.3594 316.741 78.5551Z" fill="#C1FF00"/>
<path d="M313.347 85.6778V88.6208H307.976V85.6778C308.281 85.6231 308.562 85.4752 308.78 85.2545C308.999 85.0338 309.143 84.751 309.194 84.4449H312.129C312.18 84.751 312.325 85.0338 312.543 85.2545C312.761 85.4752 313.042 85.6231 313.347 85.6778Z" fill="#C1FF00"/>
<path d="M313.347 77.0667V79.6977C313.016 79.7576 312.715 79.9268 312.491 80.1783C312.268 80.4297 312.135 80.7489 312.114 81.0847H309.209C309.188 80.7489 309.055 80.4297 308.832 80.1783C308.608 79.9268 308.307 79.7576 307.976 79.6977V77.0667H313.347Z" fill="#C1FF00"/>
<path d="M312.111 84.1969C312.109 84.2206 312.109 84.2445 312.111 84.2683H309.205C309.207 84.2445 309.207 84.2206 309.205 84.1969V81.2614H312.103L312.111 84.1969Z" fill="#C1FF00"/>
<path d="M309.043 82.7723V84.1969C309.044 84.3696 309.011 84.5409 308.946 84.7009C308.881 84.8608 308.785 85.0064 308.664 85.1293C308.542 85.2522 308.397 85.3499 308.238 85.4169C308.079 85.4839 307.908 85.5189 307.735 85.5199H304.653V82.7723H309.043Z" fill="#C1FF00"/>
<path d="M309.043 81.1674V82.592H304.653V79.8444H307.735C307.908 79.8453 308.079 79.8803 308.238 79.9474C308.397 80.0144 308.542 80.1121 308.664 80.235C308.785 80.3579 308.881 80.5034 308.946 80.6634C309.011 80.8234 309.044 80.9947 309.043 81.1674Z" fill="#C1FF00"/>
<path d="M307.807 85.6777V88.6057H306.108C305.914 88.6038 305.721 88.5632 305.543 88.4864C305.364 88.4095 305.202 88.2979 305.067 88.1581C304.931 88.0182 304.825 87.8528 304.754 87.6716C304.683 87.4903 304.649 87.2968 304.654 87.1023V85.6777H307.807Z" fill="#C1FF00"/>
<path d="M307.807 77.0667V79.6977H304.654V78.5701C304.65 78.3757 304.684 78.1824 304.755 78.0014C304.826 77.8203 304.933 77.6552 305.068 77.5154C305.203 77.3757 305.365 77.2641 305.543 77.187C305.722 77.11 305.914 77.0691 306.108 77.0667H307.807Z" fill="#C1FF00"/>
<path d="M343.214 140.998C348.913 140.998 354.485 142.688 359.224 145.854C363.963 149.021 367.657 153.522 369.838 158.787C372.019 164.053 372.589 169.847 371.478 175.437C370.366 181.027 367.621 186.162 363.591 190.192C359.561 194.223 354.426 196.967 348.836 198.079C343.246 199.191 337.451 198.62 332.186 196.439C326.92 194.258 322.419 190.565 319.253 185.825C316.086 181.086 314.396 175.515 314.396 169.815C314.405 162.175 317.444 154.85 322.846 149.448C328.249 144.046 335.574 141.007 343.214 140.998ZM368.265 169.815C368.265 164.861 366.796 160.017 364.043 155.897C361.291 151.778 357.378 148.567 352.8 146.671C348.223 144.775 343.186 144.279 338.326 145.245C333.467 146.212 329.003 148.598 325.5 152.101C321.996 155.605 319.61 160.069 318.644 164.928C317.677 169.788 318.173 174.824 320.069 179.402C321.965 183.98 325.176 187.892 329.296 190.645C333.416 193.397 338.259 194.867 343.214 194.867C349.855 194.859 356.223 192.217 360.919 187.521C365.615 182.824 368.257 176.457 368.265 169.815Z" fill="#FEE600"/>
<path d="M359.21 157.735C359.418 157.873 359.597 158.051 359.735 158.258C359.874 158.465 359.97 158.698 360.017 158.943C360.065 159.188 360.063 159.44 360.013 159.684C359.962 159.929 359.863 160.16 359.722 160.366L343.946 183.779C343.784 184.022 343.566 184.223 343.312 184.367C343.057 184.512 342.773 184.594 342.481 184.609H342.383C342.106 184.609 341.833 184.548 341.583 184.431C341.333 184.313 341.112 184.142 340.936 183.929L328.483 168.985C328.325 168.795 328.205 168.576 328.132 168.34C328.058 168.104 328.031 167.856 328.053 167.609C328.076 167.363 328.146 167.124 328.261 166.905C328.375 166.686 328.532 166.491 328.722 166.333C328.912 166.174 329.131 166.055 329.367 165.981C329.603 165.907 329.851 165.881 330.097 165.903C330.344 165.925 330.583 165.996 330.802 166.11C331.021 166.225 331.215 166.382 331.374 166.572L342.225 179.592L356.598 158.239C356.736 158.034 356.914 157.858 357.12 157.722C357.326 157.586 357.557 157.492 357.8 157.445C358.042 157.398 358.292 157.4 358.534 157.449C358.776 157.499 359.006 157.596 359.21 157.735Z" fill="#FEE600"/>
<path d="M386.487 207.834C389.731 207.834 392.842 209.123 395.136 211.416C397.429 213.71 398.718 216.821 398.718 220.065C398.718 223.309 397.429 226.419 395.136 228.713C392.842 231.007 389.731 232.295 386.487 232.295H301.053C297.809 232.295 294.698 231.007 292.405 228.713C290.111 226.419 288.822 223.309 288.822 220.065C288.822 216.821 290.111 213.71 292.405 211.416C294.698 209.123 297.809 207.834 301.053 207.834H386.487Z" fill="#FEE600"/>
<path d="M562.039 454.443C548.154 438.42 546.08 419.319 543.565 405.494C541.05 391.67 533.262 367.103 525.471 346.683C517.679 326.262 495.435 334.241 495.435 334.241C478.657 321.673 460.311 331.986 460.311 331.986C444.524 317.327 427.437 327.976 427.437 327.976C427.437 327.976 424.307 324.195 415.447 296.17C406.588 268.145 394.068 215.532 379.255 219.493C364.442 223.455 375.046 258.892 381.766 284.777C388.487 310.663 400.559 368.347 400.559 368.347C383.217 339.443 375.376 338.06 358.711 331.652C342.045 325.243 329.994 335.549 346.645 348.682C363.296 361.815 381.77 400.142 399.492 423.517C417.274 446.892 450.576 467.189 465.152 480.006C479.668 492.823 483.945 504.437 508.068 534.232L515.168 540.246L592.897 491.297C592.897 491.297 575.856 470.403 562.039 454.443Z" fill="#F79268"/>
<path d="M420.661 425.915C420.596 425.915 420.534 425.895 420.481 425.858C420.429 425.821 420.389 425.769 420.367 425.708C414.233 408.794 408.313 391.369 402.769 373.922C402.757 373.882 402.752 373.841 402.755 373.8C402.759 373.759 402.77 373.719 402.789 373.682C402.808 373.646 402.834 373.613 402.865 373.586C402.897 373.56 402.933 373.54 402.972 373.527C403.012 373.514 403.053 373.51 403.094 373.513C403.135 373.516 403.175 373.528 403.212 373.547C403.248 373.566 403.281 373.591 403.308 373.623C403.334 373.654 403.354 373.691 403.367 373.73C408.907 391.174 414.827 408.588 420.958 425.494C420.972 425.533 420.978 425.574 420.977 425.615C420.975 425.657 420.965 425.697 420.948 425.734C420.93 425.772 420.905 425.805 420.875 425.833C420.844 425.861 420.808 425.882 420.77 425.896C420.735 425.91 420.698 425.916 420.661 425.915Z" fill="#D36944"/>
<path d="M355.125 354.474C361.033 350.577 358.455 343.352 352.17 338.639C345.886 333.926 339.857 328.209 336.715 331.915C333.637 335.497 347.837 359.308 355.125 354.474Z" fill="#032233"/>
<path d="M373.125 227.003C375.617 234.814 378.289 240.497 384.886 239.151C391.621 237.806 388.938 228.627 387.791 224.797C385.224 216.573 380.176 215.359 377.011 216.366C373.847 217.434 371.595 219.862 373.125 227.003Z" fill="#032233"/>
<path d="M596.393 481.679C607.451 489.636 623.73 495.428 644.913 509.711C649.8 513.014 661.256 524.745 672.581 537.525C658.347 558.152 639.009 575.596 619.851 592.683C604.44 606.214 588.654 617.114 570.612 628.014C562.009 633.115 553.401 637.667 544.339 641.921C532.244 623.741 522.284 605.616 518.25 596.442C513.289 585.166 511.756 572.067 509.981 554.69C512.342 553.247 515.108 551.379 518.194 549.188C518.623 548.883 519.051 548.571 519.495 548.248C524.065 544.937 529.267 540.96 534.807 536.551C535.228 536.224 535.642 535.897 536.059 535.559C540.75 531.8 545.662 527.782 550.609 523.621C551.018 523.268 551.432 522.922 551.845 522.573C556.935 518.269 562.054 513.845 567.015 509.463C567.414 509.105 567.823 508.748 568.226 508.391C573.21 503.96 577.998 499.589 582.426 495.435C582.828 495.059 583.223 494.683 583.614 494.308C588.455 489.733 592.815 485.433 596.393 481.679Z" fill="#00FFA3"/>
<path d="M595.401 480.949C595.72 481.197 596.058 481.434 596.389 481.679C592.811 485.437 588.451 489.726 583.61 494.311C583.362 493.86 583.098 493.409 582.858 492.958C587.568 488.501 591.788 484.332 595.261 480.679C595.292 480.769 595.352 480.855 595.401 480.949Z" fill="#032233"/>
<path d="M566.533 452.688C568.764 453.765 572.935 456.676 577.824 461.337C582.795 466.075 588.41 472.531 593.353 480.475C590.408 483.537 586.967 486.943 583.173 490.565C575.786 478.063 567.094 466.38 557.242 455.712C560.741 454.303 563.882 453.28 566.533 452.688Z" fill="#00FFA3" stroke="black" stroke-width="3"/>
<path d="M583.602 494.311C583.226 494.687 582.817 495.063 582.414 495.439C582.159 494.98 581.907 494.533 581.663 494.082C582.038 493.706 582.456 493.33 582.847 492.955C583.091 493.409 583.373 493.868 583.602 494.311Z" fill="#032233"/>
<path d="M582.832 492.958C582.456 493.334 582.039 493.71 581.648 494.086C573.68 480.257 564.108 467.416 553.131 455.83C553.65 455.593 554.165 455.364 554.672 455.15C565.489 466.621 574.939 479.309 582.832 492.958Z" fill="#032233"/>
<path d="M581.648 494.075C581.907 494.526 582.159 494.973 582.399 495.431C577.976 499.585 573.183 503.956 568.199 508.387C567.944 507.94 567.684 507.489 567.429 507.049C572.431 502.611 577.235 498.22 581.648 494.075Z" fill="#032233"/>
<path d="M552.775 457.63C563.092 468.636 572.14 480.767 579.748 493.793C575.995 497.298 571.976 500.984 567.812 504.71C559.577 490.653 550.897 476.745 541.86 463.183C545.421 461.183 549.063 459.332 552.775 457.63Z" fill="#00FFA3" stroke="black" stroke-width="3"/>
<path d="M567.444 507.049C567.699 507.489 567.958 507.94 568.214 508.387C567.812 508.745 567.402 509.102 567.004 509.459C566.748 509.011 566.485 508.564 566.229 508.124C566.632 507.775 567.041 507.399 567.444 507.049Z" fill="#032233"/>
<path d="M567.444 507.05C567.042 507.407 566.632 507.764 566.23 508.124C557.423 492.981 548.087 478.029 538.344 463.472L539.72 462.675C549.399 477.142 558.679 491.989 567.444 507.05Z" fill="#032233"/>
<path d="M566.23 508.124C566.485 508.564 566.748 509.011 567.004 509.459C562.042 513.841 556.923 518.265 551.834 522.569C551.593 522.11 551.345 521.659 551.082 521.216C556.183 516.916 561.283 512.499 566.23 508.124Z" fill="#032233"/>
<path d="M537.883 465.483C547.096 479.301 555.941 493.469 564.311 507.813C560.11 511.519 555.806 515.247 551.502 518.901C546.322 509.996 540.172 502.22 534.268 494.728L534.266 494.726C529.72 488.974 525.099 483.124 520.901 476.768C526.367 472.722 532.035 468.955 537.883 465.483Z" fill="#00FFA3" stroke="black" stroke-width="3"/>
<path d="M551.097 521.216C551.346 521.659 551.594 522.11 551.849 522.569C551.436 522.919 551.022 523.264 550.613 523.618C550.368 523.155 550.12 522.7 549.861 522.257L551.097 521.216Z" fill="#032233"/>
<path d="M551.097 521.216L549.857 522.257C544.595 512.819 538.13 504.629 531.857 496.698C527.027 490.587 522.084 484.313 517.6 477.412C518.021 477.085 518.446 476.762 518.874 476.439C523.321 483.321 528.271 489.594 533.09 495.687C539.351 503.603 545.805 511.763 551.097 521.216Z" fill="#032233"/>
<path d="M549.857 522.257C550.105 522.7 550.353 523.155 550.609 523.618C545.662 527.778 540.75 531.808 536.059 535.555C535.751 535.179 535.446 534.766 535.134 534.36C539.866 530.567 544.843 526.485 549.857 522.257Z" fill="#032233"/>
<path d="M517.231 479.548C521.509 486.007 526.17 491.908 530.679 497.613V497.612C536.719 505.263 542.863 513.043 547.937 521.896C543.671 525.481 539.442 528.953 535.371 532.223C534.337 530.897 533.282 529.543 532.206 528.161L532.204 528.159L528.628 523.58C520.453 513.083 511.859 501.788 504.713 490.277C508.71 486.5 512.888 482.92 517.231 479.548Z" fill="#00FFA3" stroke="black" stroke-width="3"/>
<path d="M535.123 534.36C535.435 534.766 535.74 535.16 536.048 535.555C535.631 535.893 535.217 536.22 534.796 536.547C534.488 536.153 534.183 535.751 533.868 535.352C534.289 535.025 534.702 534.694 535.123 534.36Z" fill="#032233"/>
<path d="M535.123 534.36C534.702 534.694 534.289 535.025 533.868 535.352C532.542 533.646 531.183 531.902 529.79 530.12C520.393 518.115 510.008 504.821 501.637 491.195C502.013 490.82 502.411 490.444 502.799 490.068C511.158 503.716 521.592 517.07 531.022 529.12C532.423 530.902 533.79 532.648 535.123 534.36Z" fill="#032233"/>
<path d="M533.867 535.352C534.183 535.751 534.488 536.153 534.796 536.547C529.263 540.956 524.054 544.933 519.483 548.244C519.164 547.868 518.844 547.459 518.528 547.06C523.095 543.756 528.32 539.769 533.867 535.352Z" fill="#032233"/>
<path d="M501.355 493.585C508.525 505.022 517.029 516.187 525.049 526.484L528.607 531.044C529.68 532.417 530.733 533.77 531.769 535.101C527.126 538.776 522.734 542.129 518.793 545.003C508.441 532.16 498.22 519.011 491.833 504.509C494.766 500.664 497.948 497.015 501.355 493.585Z" fill="#00FFA3" stroke="black" stroke-width="3"/>
<path d="M518.521 547.057C518.837 547.455 519.156 547.85 519.476 548.241C519.032 548.564 518.604 548.876 518.175 549.18L517.221 547.993L518.521 547.057Z" fill="#032233"/>
<path d="M518.521 547.057L517.221 547.993C506.539 534.762 495.747 521.077 489.031 505.798C489.38 505.298 489.745 504.806 490.113 504.313C496.74 519.761 507.692 533.646 518.521 547.057Z" fill="#032233"/>
<path d="M517.22 547.992L518.175 549.188C515.089 551.379 512.323 553.247 509.962 554.69C509.91 554.179 509.857 553.672 509.805 553.149L509.729 553.029C511.913 551.665 514.435 549.962 517.22 547.992Z" fill="#032233"/>
<path d="M488.764 508.836C495.391 522.857 505.266 535.541 515.047 547.685C513.314 548.896 511.703 549.988 510.229 550.937C506.164 544.24 501.523 538.391 497.295 532.579C492.89 526.524 488.877 520.441 486.111 513.213C486.942 511.722 487.827 510.262 488.764 508.836Z" fill="#00FFA3" stroke="black" stroke-width="3"/>
<path d="M251.634 328.016C254.132 331.352 256.102 334.418 257.435 337.069C256.975 339.527 255.158 344.433 251.781 350.478C248.367 356.588 243.405 363.784 236.778 370.672C232.84 368.459 228.374 365.789 223.576 362.797C234.168 352.26 243.578 340.598 251.634 328.016Z" fill="#00FFA3" stroke="black" stroke-width="2"/>
<path d="M250.521 324.943C250.878 325.386 251.228 325.826 251.562 326.266C243.152 339.605 233.223 351.925 221.974 362.976L220.595 362.104C231.997 350.937 242.042 338.463 250.521 324.943Z" fill="#032233"/>
<path d="M240.555 315.136C243.807 318.527 246.755 321.852 249.293 325.012C241.077 338.011 231.403 350.029 220.459 360.833C215.86 357.915 211.001 354.75 206.056 351.43C217.895 339.703 229.435 327.55 240.555 315.136Z" fill="#00FFA3" stroke="black" stroke-width="2"/>
<path d="M239.418 312.531L240.546 313.659C228.954 326.641 216.866 339.342 204.5 351.584L203.155 350.678C215.607 338.376 227.755 325.6 239.418 312.531Z" fill="#032233"/>
<path d="M222.118 298.282C227.675 302.76 232.99 307.529 238.042 312.57C226.778 325.173 215.044 337.5 203.02 349.396C198.105 346.067 193.132 342.645 188.248 339.181C195.742 331.853 201.838 323.814 207.72 316.092L207.721 316.091C212.247 310.133 216.866 304.062 222.118 298.282Z" fill="#00FFA3" stroke="black" stroke-width="2"/>
<path d="M236.738 372.151C236.58 372.527 236.434 372.903 236.28 373.279C231.75 370.753 226.507 367.6 220.869 364.048C221.245 363.694 221.621 363.33 221.997 362.965C227.488 366.408 232.577 369.456 236.982 371.911C236.885 371.997 236.825 372.087 236.738 372.151Z" fill="#032233"/>
<path d="M221.974 362.976C221.598 363.352 221.223 363.706 220.847 364.059C220.388 363.773 219.926 363.484 219.467 363.191L220.595 362.104L221.974 362.976Z" fill="#032233"/>
<path d="M220.753 295.926C221.174 296.249 221.595 296.584 222.012 296.914C216.46 302.928 211.627 309.295 206.924 315.486C200.809 323.529 194.521 331.813 186.688 339.301L185.369 338.361C193.194 330.915 199.509 322.605 205.635 314.546C210.352 308.341 215.186 301.977 220.753 295.926Z" fill="#032233"/>
<path d="M220.595 362.104L219.467 363.191C214.344 359.943 208.909 356.395 203.373 352.666C203.748 352.309 204.124 351.945 204.478 351.584C210.029 355.316 215.479 358.868 220.595 362.104Z" fill="#032233"/>
<path d="M204.959 286.029C209.903 289.123 214.686 292.466 219.289 296.048C213.991 301.897 209.347 307.999 204.839 313.941C198.864 321.801 192.759 329.83 185.274 337.065C180.47 333.641 175.805 330.22 171.371 326.918L174.814 322.44H174.815C183.989 310.5 194.09 297.356 204.959 286.029Z" fill="#00FFA3" stroke="black" stroke-width="2"/>
<path d="M203.407 283.909C203.873 284.184 204.335 284.469 204.801 284.751C193.672 296.256 183.347 309.705 174.033 321.83L169.969 327.115C169.541 326.788 169.116 326.472 168.695 326.145C170.015 324.439 171.371 322.684 172.743 320.883C182.024 308.81 192.3 295.411 203.407 283.909Z" fill="#032233"/>
<path d="M204.5 351.591C204.124 351.967 203.749 352.317 203.395 352.674L202.057 351.768C202.433 351.392 202.809 351.043 203.155 350.686L204.5 351.591Z" fill="#032233"/>
<path d="M203.14 350.686C202.764 351.061 202.414 351.411 202.042 351.768C196.558 348.058 190.999 344.206 185.561 340.353C185.936 340.007 186.312 339.65 186.688 339.301C192.119 343.146 197.671 346.987 203.14 350.686Z" fill="#032233"/>
<path d="M187.986 277.169C192.753 279.166 197.375 281.489 201.818 284.125C190.999 295.474 180.982 308.528 171.95 320.286L171.949 320.286C170.787 321.805 169.636 323.295 168.508 324.759C163.478 320.951 158.864 317.325 154.899 314.053C164.898 300.605 175.254 287.132 187.986 277.169Z" fill="#00FFA3" stroke="black" stroke-width="2"/>
<path d="M186.124 275.343C186.695 275.559 187.264 275.784 187.831 276.02C174.521 286.3 163.813 300.372 153.529 314.208L152.304 313.178C162.448 299.545 173.01 285.668 186.124 275.343Z" fill="#032233"/>
<path d="M185.369 338.361L186.688 339.301C186.312 339.65 185.936 340.007 185.56 340.353C185.121 340.037 184.677 339.725 184.237 339.417C184.621 339.064 185 338.711 185.369 338.361Z" fill="#032233"/>
<path d="M185.369 338.361C184.993 338.71 184.617 339.064 184.241 339.417C178.979 335.658 173.848 331.9 169.045 328.307L169.973 327.115C174.826 330.761 180.024 334.561 185.369 338.361Z" fill="#032233"/>
<path d="M178.119 273.833C180.147 274.353 182.151 274.965 184.123 275.669C171.8 285.735 161.724 298.844 152.132 311.723C150.202 310.08 148.471 308.553 146.984 307.163C152.598 301.47 157.179 295.409 161.87 289.72C166.689 283.876 171.661 278.38 178.119 273.833Z" fill="#00FFA3" stroke="black" stroke-width="2"/>
<path d="M169.97 327.115L169.041 328.306C168.613 327.987 168.192 327.671 167.771 327.344C168.075 326.946 168.387 326.551 168.696 326.145C169.117 326.472 169.545 326.788 169.97 327.115Z" fill="#032233"/>
<path d="M168.695 326.145C168.387 326.551 168.075 326.946 167.771 327.344C162.133 323.086 156.968 319.038 152.62 315.433C152.917 315.027 153.217 314.621 153.525 314.215C157.87 317.816 163.035 321.875 168.695 326.145Z" fill="#032233"/>
<path d="M153.529 314.204C153.221 314.61 152.92 315.016 152.623 315.422C152.199 315.072 151.789 314.738 151.387 314.4C151.695 313.997 151.996 313.588 152.304 313.174L153.529 314.204Z" fill="#032233"/>
<path d="M151.387 314.403C151.789 314.742 152.199 315.076 152.623 315.426C156.972 319.03 162.122 323.078 167.775 327.337C168.196 327.664 168.616 327.98 169.045 328.299C173.848 331.907 178.975 335.655 184.241 339.41C184.681 339.718 185.125 340.03 185.564 340.346C191.003 344.198 196.562 348.051 202.046 351.761L203.384 352.666C208.921 356.387 214.356 359.936 219.479 363.191C219.937 363.484 220.399 363.773 220.858 364.059C226.496 367.611 231.758 370.764 236.269 373.29C231.322 385.983 229.781 403.194 221.234 427.272C219.261 432.831 210.759 446.817 201.234 460.976C190.661 455.597 180.047 451.177 169.173 444.964C150.379 434.064 133.09 425.043 115.424 411.888C111.289 408.881 108.283 406.25 104.9 403.619C92.872 394.974 84.2271 384.825 72.9511 375.805C72.1994 375.053 72.1994 373.925 71.8235 373.174C69.4932 370.847 66.8696 369.017 64.4565 367.021C80.1226 349.073 97.1005 332.986 105.636 326.273C115.307 318.654 127.617 313.9 143.975 307.822C145.993 309.75 148.496 311.949 151.387 314.403Z" fill="#00FFA3"/>
<path d="M152.304 313.178C151.996 313.591 151.695 314.001 151.387 314.403C148.493 311.964 145.993 309.75 144.009 307.822L145.46 307.288L145.561 307.187C147.422 308.961 149.696 310.979 152.304 313.178Z" fill="#032233"/>
</g>
<defs>
<filter id="filter0_d_188_449" x="-0.00439453" y="0.0150146" width="681.585" height="670.906" filterUnits="userSpaceOnUse" color-interpolation-filters="sRGB">
<feFlood flood-opacity="0" result="BackgroundImageFix"/>
<feColorMatrix in="SourceAlpha" type="matrix" values="0 0 0 0 0 0 0 0 0 0 0 0 0 0 0 0 0 0 127 0" result="hardAlpha"/>
<feOffset dx="-13" dy="7"/>
<feGaussianBlur stdDeviation="11"/>
<feComposite in2="hardAlpha" operator="out"/>
<feColorMatrix type="matrix" values="0 0 0 0 0 0 0 0 0 0 0 0 0 0 0 0 0 0 0.28 0"/>
<feBlend mode="normal" in2="BackgroundImageFix" result="effect1_dropShadow_188_449"/>
<feBlend mode="normal" in="SourceGraphic" in2="effect1_dropShadow_188_449" result="shape"/>
</filter>
</defs>
</svg>
