<svg width="284" height="43" viewBox="0 0 284 43" fill="none" xmlns="http://www.w3.org/2000/svg">
<path d="M22.7894 18.295L11.1263 16.4064L0 -9.53674e-07H18.1291L27.2156 9.09137L22.7894 18.295Z" fill="#FEE600"/>
<path d="M15.9331 28.0549L21.6622 16.7627L41.2211 18.9001L26.1224 42.89L15.9331 28.0549Z" fill="#FEE600"/>
<path d="M38.2394 15.9868C42.654 15.9868 46.2328 12.408 46.2328 7.99338C46.2328 3.57876 42.654 -9.53674e-07 38.2394 -9.53674e-07C33.8248 -9.53674e-07 30.246 3.57876 30.246 7.99338C30.246 12.408 33.8248 15.9868 38.2394 15.9868Z" fill="#FEE600"/>
<path d="M15.3768 13.2979H8.01778L13.4931 4.10405H24.0777L26.0053 7.47122H15.3036L13.8201 10.0478H17.2067L15.3768 13.2979Z" fill="white"/>
<path d="M26.0053 3.03534C26.0053 3.03534 28.05 7.07595 28.8601 7.3297H29.7678L13.8396 34.5355H32.3834L28.0208 27.1326L29.1334 25.2294L35.775 36.5558H10.3992L26.0151 10.0478H20.2567C20.2567 10.0478 19.515 10.1406 18.9586 11.5118L17.3092 14.4837C17.3092 14.4837 18.9148 13.1808 20.2812 13.3223L4.61154 39.8791H41.6407L29.148 18.7537L24.2046 27.1326L26.5958 31.2659H19.7004L35.5554 4.15284L28.5722 4.28948C28.077 4.2905 27.588 4.17798 27.1431 3.96057C26.6981 3.74316 26.3089 3.42664 26.0053 3.03534Z" fill="white"/>
<path d="M20.3836 34.5404H31.3782L26.1224 42.89L20.3836 34.5404Z" fill="#FEE600"/>
<path d="M84.5698 18.7391V19.0416L74.8001 32.2517L71.3451 36.9364H65.7477V36.5997L75.4833 23.4287L78.9481 18.7391H84.5698Z" fill="#FEE600"/>
<g opacity="0.57">
<path d="M84.5698 18.7391V19.0416L81.3441 23.4043H67.2605V18.7391H84.5698Z" fill="white"/>
</g>
<g opacity="0.57">
<path d="M84.316 32.2517V36.9364H65.7477V36.5997L68.9637 32.2517H84.316Z" fill="white"/>
</g>
<path d="M91.27 18.6951H86.0484V36.9364H91.27V18.6951Z" fill="#FEE600"/>
<g opacity="0.57">
<path d="M90.9089 11.0678C91.2137 11.3502 91.4549 11.6942 91.6164 12.0771C91.7779 12.4599 91.8561 12.8727 91.8458 13.2881C91.8586 13.7183 91.7779 14.1461 91.6094 14.542C91.4409 14.938 91.1886 15.2927 90.8698 15.5817C90.2532 16.1472 89.447 16.4609 88.6104 16.4609C87.7738 16.4609 86.9675 16.1472 86.351 15.5817C86.0409 15.2881 85.7973 14.9315 85.6365 14.5359C85.4758 14.1403 85.4016 13.7148 85.4189 13.2881C85.4089 12.8775 85.4854 12.4693 85.6434 12.0901C85.8015 11.7109 86.0376 11.3692 86.3364 11.0873C86.6322 10.7951 86.9839 10.5655 87.3704 10.412C87.7569 10.2586 88.1703 10.1845 88.586 10.1942C89.4451 10.1683 90.2798 10.4822 90.9089 11.0678Z" fill="white"/>
</g>
<path d="M102.86 31.7881V36.5656C102.402 36.6978 101.933 36.7876 101.459 36.834C100.886 36.9026 100.309 36.9369 99.7318 36.9364C98.8286 36.9437 97.9313 36.79 97.082 36.4826C96.2889 36.1878 95.5778 35.7076 95.008 35.0821C94.3944 34.3703 93.9343 33.5397 93.6563 32.6421C93.3101 31.4787 93.1455 30.2689 93.1683 29.0553V15.2352H98.3557V28.3087C98.3557 29.7287 98.5997 30.7486 99.0974 31.3147C99.3314 31.6036 99.6299 31.8336 99.9689 31.9861C100.308 32.1387 100.678 32.2096 101.049 32.1931C101.675 32.1871 102.292 32.0491 102.86 31.7881Z" fill="#FEE600"/>
<path d="M123.492 19.027C128.197 19.027 132.013 22.97 132.013 27.8109C132.013 32.6518 128.197 36.6241 123.492 36.6241C118.788 36.6241 114.982 32.6811 114.982 27.8109C114.982 22.9407 118.793 19.027 123.492 19.027ZM127.772 27.8109C127.743 26.9713 127.468 26.1587 126.981 25.4744C126.493 24.7901 125.815 24.2645 125.031 23.9629C124.247 23.6613 123.392 23.5971 122.571 23.7784C121.751 23.9597 121.002 24.3784 120.418 24.9824C119.834 25.5863 119.441 26.3488 119.287 27.1748C119.134 28.0007 119.227 28.8536 119.554 29.6271C119.882 30.4006 120.43 31.0606 121.131 31.5247C121.831 31.9888 122.652 32.2365 123.492 32.237C124.644 32.219 125.741 31.745 126.544 30.9188C127.346 30.0927 127.788 28.982 127.772 27.8304V27.8109Z" fill="#FEE600"/>
<path d="M127.772 12.9709L129.051 17.1531C125.238 18.5782 121.039 18.5782 117.226 17.1531L118.51 12.9709C121.49 14.1382 124.801 14.1382 127.782 12.9709H127.772Z" fill="#FEE600"/>
<path d="M149.771 23.8435V28.5673C149.771 33.1837 146.16 36.9267 141.704 36.9267C137.249 36.9267 133.633 33.1837 133.633 28.5673V18.7147H138.684V29.1383C138.684 29.9381 139.001 30.7052 139.567 31.2708C140.133 31.8363 140.9 32.1541 141.699 32.1541C142.499 32.1541 143.266 31.8363 143.832 31.2708C144.398 30.7052 144.715 29.9381 144.715 29.1383V23.8435H149.771Z" fill="#FEE600"/>
<path d="M160.858 28.5039C160.888 33.1203 157.301 36.8828 152.836 36.912C148.37 36.9413 144.75 33.2179 144.72 28.6161L144.691 23.8923L149.747 23.8581L149.781 29.1724C149.786 29.9723 150.109 30.7373 150.678 31.2992C151.247 31.8611 152.016 32.1739 152.816 32.1687C153.616 32.1635 154.381 31.8408 154.943 31.2716C155.505 30.7024 155.818 29.9332 155.812 29.1334L155.744 18.7147L160.8 18.6805L160.858 28.5039Z" fill="#FEE600"/>
<path d="M113.952 31.7881V36.5656C113.493 36.6973 113.022 36.7871 112.547 36.834C111.975 36.9025 111.4 36.9367 110.824 36.9364C109.921 36.9445 109.023 36.7908 108.174 36.4826C107.38 36.1903 106.668 35.7097 106.1 35.0821C105.484 34.3724 105.023 33.5411 104.748 32.6421C104.402 31.4787 104.238 30.2689 104.26 29.0553V15.2352H109.443V28.3087C109.443 29.7287 109.687 30.7486 110.185 31.3147C110.419 31.6036 110.717 31.8336 111.056 31.9861C111.395 32.1387 111.765 32.2096 112.137 32.1931C112.763 32.1866 113.382 32.0486 113.952 31.7881Z" fill="#FEE600"/>
<g opacity="0.57">
<path d="M149.771 18.7391V28.6503H144.715V18.7195L149.771 18.7391Z" fill="white"/>
<path d="M132.218 19.027H123.434V23.4141H132.218V19.027Z" fill="white"/>
<path d="M109.448 5.95355H104.26V24.5218H109.448V5.95355Z" fill="white"/>
<path d="M98.3654 5.95355H93.178V24.5218H98.3654V5.95355Z" fill="white"/>
</g>
<path d="M190.289 22.8675L189.655 26.6251C188.459 33.6327 186.62 36.956 182.159 36.956H181.588C177.123 36.956 175.288 33.6327 174.093 26.6251L172.448 16.8652H177.504L179.261 27.1814C179.773 30.1875 180.402 31.8759 181.588 32.281C181.777 32.3151 181.971 32.3151 182.159 32.281C183.34 31.8759 183.975 30.1875 184.487 27.1814L185.234 22.848L190.289 22.8675Z" fill="#FEE600"/>
<path opacity="0.57" d="M184.531 26.9276H189.601L191.295 16.8652H186.244L184.531 26.9276Z" fill="white"/>
<path d="M200.85 19.3149C205.554 19.3149 209.37 23.2628 209.37 28.1232C209.37 32.9837 205.554 36.9364 200.85 36.9364C196.145 36.9364 192.339 32.9886 192.339 28.1232C192.339 23.2579 196.15 19.3149 200.85 19.3149ZM205.129 28.1232C205.101 27.2836 204.825 26.471 204.338 25.7867C203.851 25.1025 203.173 24.5768 202.388 24.2752C201.604 23.9736 200.749 23.9094 199.928 24.0907C199.108 24.272 198.359 24.6908 197.775 25.2947C197.191 25.8987 196.798 26.6611 196.644 27.4871C196.491 28.313 196.584 29.1659 196.912 29.9394C197.239 30.713 197.787 31.3729 198.488 31.837C199.188 32.3011 200.009 32.5489 200.85 32.5494C201.421 32.5398 201.985 32.4178 202.51 32.1902C203.034 31.9626 203.509 31.6339 203.906 31.2228C204.304 30.8118 204.616 30.3265 204.826 29.7947C205.036 29.2629 205.139 28.6949 205.129 28.1232Z" fill="#FEE600"/>
<path d="M205.129 13.5956L206.408 17.7777C202.595 19.2029 198.396 19.2029 194.584 17.7777L195.867 13.5956C198.848 14.7629 202.159 14.7629 205.139 13.5956H205.129Z" fill="#FEE600"/>
<path opacity="0.57" d="M210.19 19.3295H201.357V23.7508H210.19V19.3295Z" fill="white"/>
<path d="M217.246 23.0285H212.025V36.9364H217.246V23.0285Z" fill="#FEE600"/>
<path opacity="0.57" d="M212.03 18.6951V27.5279H217.246V18.6951H212.03Z" fill="white"/>
<path d="M221.76 18.6268C220.115 18.6716 218.53 19.2525 217.246 20.2811V25.5124C217.661 24.7853 219.95 21.1205 222.673 23.6385H228.041C228.041 23.6385 228.251 18.6268 221.76 18.6268Z" fill="#FEE600"/>
<path d="M238.918 31.7881V36.5656C238.459 36.6973 237.988 36.7871 237.513 36.834C236.939 36.9026 236.363 36.9369 235.785 36.9364C234.884 36.9441 233.988 36.7904 233.14 36.4826C232.346 36.1854 231.636 35.6997 231.071 35.0674C230.453 34.359 229.992 33.5273 229.719 32.6274C229.373 31.4641 229.208 30.2542 229.231 29.0407V15.2352H234.419V28.3087C234.419 29.7287 234.663 30.7486 235.161 31.3147C235.391 31.5998 235.685 31.8276 236.019 31.98C236.352 32.1324 236.717 32.2054 237.083 32.1931C237.717 32.1892 238.342 32.0511 238.918 31.7881Z" fill="#FEE600"/>
<path d="M230.944 17.685V22.8431H238.581V17.685H230.944Z" fill="#FEE600"/>
<path opacity="0.57" d="M234.394 7.55906H229.236V26.1761H234.394V7.55906Z" fill="white"/>
<path d="M253.255 13.5956L254.539 17.7777C250.727 19.2091 246.526 19.2091 242.715 17.7777L243.993 13.5956C246.973 14.7692 250.286 14.7692 253.265 13.5956H253.255Z" fill="#FEE600"/>
<path d="M257.023 26.5275C257.023 26.464 257.023 26.4006 256.984 26.3372C256.945 26.2737 256.955 26.1859 256.94 26.1224C256.925 26.059 256.94 26.0541 256.94 26.0151L256.901 25.8492C256.447 23.9961 255.388 22.3473 253.892 21.1638C252.395 19.9802 250.547 19.3296 248.639 19.3149C243.94 19.3149 240.124 23.2579 240.124 28.0988C240.124 32.9398 243.94 36.9169 248.639 36.9169C250.384 36.9065 252.088 36.3889 253.543 35.4271C254.999 34.4654 256.144 33.1009 256.837 31.5002H251.718C250.831 32.1687 249.75 32.5302 248.639 32.5298C247.818 32.5229 247.016 32.2788 246.33 31.8269C245.645 31.3749 245.104 30.7344 244.774 29.9825H257.116L257.179 28.7186C257.212 27.9846 257.159 27.2494 257.023 26.5275ZM248.639 23.702C249.385 23.7062 250.118 23.9068 250.762 24.2838C251.406 24.6607 251.939 25.2006 252.309 25.8492H244.989C245.357 25.2034 245.887 24.6654 246.527 24.2886C247.168 23.9118 247.896 23.7096 248.639 23.702Z" fill="#FEE600"/>
<path opacity="0.57" d="M259.287 19.554H250.454V23.9753H259.287V19.554Z" fill="white"/>
<path d="M265.724 36.9364H259.312L276.372 18.3194H282.789L265.724 36.9364Z" fill="#FEE600"/>
<path d="M276.787 36.9364H283.199L266.139 18.3194H259.721L276.787 36.9364Z" fill="#FEE600"/>
<path opacity="0.57" d="M271.08 21.222L264.934 27.3676L271.08 33.5132L277.226 27.3676L271.08 21.222Z" fill="white"/>
</svg>
