<svg width="634" height="567" viewBox="0 0 634 567" fill="none" xmlns="http://www.w3.org/2000/svg">
<path d="M579 37C575.44 37 571.96 35.915 569 33.8822C566.04 31.8494 563.733 28.9601 562.37 25.5797C561.008 22.1992 560.651 18.4795 561.346 14.8908C562.04 11.3022 563.755 8.00579 566.272 5.41851C568.789 2.83124 571.997 1.06931 575.488 0.35548C578.98 -0.358346 582.599 0.0080166 585.888 1.40824C589.177 2.80846 591.989 5.17965 593.966 8.22196C595.944 11.2643 597 14.841 597 18.5C596.995 23.4048 595.097 28.1072 591.722 31.5754C588.348 35.0436 583.772 36.9945 579 37ZM579 3.18965C576.054 3.18965 573.174 4.08759 570.724 5.76991C568.274 7.45224 566.365 9.84339 565.237 12.641C564.11 15.4386 563.815 18.517 564.39 21.4869C564.964 24.4568 566.383 27.1849 568.467 29.3261C570.55 31.4672 573.204 32.9254 576.094 33.5161C578.983 34.1069 581.979 33.8037 584.701 32.6449C587.423 31.4861 589.749 29.5237 591.386 27.006C593.023 24.4882 593.897 21.5281 593.897 18.5C593.892 14.4407 592.322 10.5489 589.529 7.67861C586.736 4.80827 582.95 3.19387 579 3.18965Z" fill="#2CD997"/>
<path d="M68.9723 95.8139C69.1079 97.489 68.7439 99.1667 67.9263 100.635C67.1087 102.103 65.8743 103.296 64.3789 104.063C62.8836 104.83 61.1944 105.137 59.525 104.944C57.8555 104.751 56.2807 104.068 54.9995 102.98C53.7183 101.893 52.7882 100.45 52.3267 98.8337C51.8653 97.2177 51.8932 95.5012 52.4069 93.901C52.9207 92.3009 53.8972 90.889 55.2132 89.8437C56.5291 88.7984 58.1253 88.1666 59.8001 88.0283C62.0488 87.8446 64.2784 88.5616 65.9984 90.0217C67.7185 91.4817 68.7882 93.5652 68.9723 95.8139Z" fill="#FFCD1E"/>
<path d="M16.0954 169.946C11.5904 169.593 7.40039 167.561 4.40283 164.275C1.40527 160.989 -0.167391 156.704 0.0141344 152.317C0.19566 147.93 2.11731 143.782 5.37669 140.74C8.63608 137.699 12.9804 136 17.5 136C22.0196 136 26.3639 137.699 29.6233 140.74C32.8827 143.782 34.8043 147.93 34.9859 152.317C35.1674 156.704 33.5947 160.989 30.5972 164.275C27.5996 167.561 23.4096 169.593 18.9046 169.946C17.9697 170.018 17.0303 170.018 16.0954 169.946ZM18.5847 139.245C17.8314 139.188 17.0745 139.188 16.3211 139.245C12.6599 139.529 9.25387 141.179 6.81653 143.848C4.37919 146.517 3.09963 149.999 3.24593 153.564C3.39223 157.129 4.95305 160.501 7.60137 162.973C10.2497 165.445 13.78 166.826 17.4529 166.826C21.1257 166.826 24.6561 165.445 27.3044 162.973C29.9528 160.501 31.5136 157.129 31.6599 153.564C31.8062 149.999 30.5266 146.517 28.0893 143.848C25.6519 141.179 22.2459 139.529 18.5847 139.245Z" fill="#2CD997"/>
<path d="M129.992 539C128.015 538.998 126.082 538.44 124.439 537.396C122.796 536.351 121.515 534.868 120.76 533.132C120.004 531.396 119.806 529.487 120.193 527.645C120.579 525.803 121.531 524.111 122.929 522.783C124.327 521.454 126.108 520.55 128.047 520.183C129.986 519.816 131.996 520.004 133.823 520.722C135.65 521.44 137.212 522.656 138.311 524.217C139.411 525.778 139.998 527.614 140 529.492C139.997 532.013 138.942 534.43 137.065 536.212C135.189 537.994 132.645 538.997 129.992 539ZM129.992 522.478C128.533 522.479 127.108 522.892 125.896 523.663C124.683 524.434 123.739 525.529 123.182 526.809C122.625 528.09 122.48 529.499 122.766 530.858C123.051 532.217 123.754 533.465 124.787 534.444C125.819 535.424 127.133 536.09 128.564 536.36C129.995 536.63 131.477 536.491 132.825 535.96C134.172 535.429 135.324 534.531 136.134 533.379C136.945 532.226 137.377 530.872 137.377 529.486C137.373 527.627 136.594 525.845 135.209 524.532C133.825 523.218 131.949 522.479 129.992 522.478Z" fill="#FFCD1E"/>
<path opacity="0.3" d="M124.984 118.927C80.3782 152.477 43.0161 193.125 29.2263 242.442C11.8441 304.602 32.3087 372.124 72.5658 422.521C146.966 515.665 290.24 551.089 404.761 504.66C520.349 457.802 586.874 332.737 601.869 218.693C608.053 171.664 601.316 121.934 574.527 82.705C542.095 35.216 483.008 8.26136 423.484 4.50951C363.961 0.757665 304.219 18.086 250.775 44.6249C210.873 64.4328 165.012 88.8222 124.984 118.927Z" fill="#FEE600"/>
<path d="M427.02 566.998C426.772 567.015 426.527 566.934 426.337 566.772C426.148 566.61 426.028 566.381 426.004 566.132C425.981 565.883 426.054 565.634 426.21 565.439C426.365 565.244 426.59 565.118 426.836 565.087C428.363 564.906 429.848 564.466 431.228 563.785C431.341 563.73 431.463 563.697 431.589 563.688C431.714 563.68 431.839 563.697 431.958 563.737C432.077 563.778 432.187 563.842 432.281 563.925C432.375 564.008 432.452 564.109 432.508 564.222C432.563 564.336 432.596 564.459 432.604 564.585C432.613 564.711 432.596 564.837 432.556 564.956C432.515 565.076 432.452 565.186 432.369 565.281C432.287 565.376 432.186 565.453 432.073 565.509C430.499 566.284 428.806 566.786 427.066 566.995L427.02 566.998ZM435.662 562.676C435.47 562.691 435.278 562.646 435.111 562.549C434.945 562.451 434.811 562.306 434.729 562.13C434.646 561.955 434.618 561.759 434.648 561.568C434.678 561.377 434.766 561.199 434.898 561.058C435.26 560.673 435.599 560.267 435.913 559.842L435.924 559.826C436.605 558.939 437.338 558.093 438.117 557.292C438.204 557.197 438.309 557.121 438.425 557.067C438.542 557.014 438.668 556.985 438.796 556.981C438.924 556.978 439.052 557.001 439.171 557.048C439.29 557.095 439.399 557.166 439.49 557.257C439.581 557.347 439.654 557.455 439.703 557.574C439.752 557.693 439.776 557.821 439.775 557.95C439.774 558.079 439.747 558.206 439.696 558.324C439.645 558.443 439.571 558.549 439.478 558.638C438.753 559.382 438.073 560.169 437.441 560.994C437.083 561.478 436.697 561.941 436.284 562.379C436.122 562.555 435.9 562.663 435.662 562.683V562.676ZM442.664 555.783C442.453 555.798 442.243 555.742 442.067 555.624C441.891 555.507 441.759 555.334 441.691 555.132C441.624 554.931 441.624 554.713 441.693 554.512C441.762 554.311 441.895 554.139 442.072 554.022C443.281 553.23 444.57 552.567 445.916 552.044C446.179 551.943 446.443 551.847 446.712 551.759C446.831 551.719 446.956 551.703 447.082 551.712C447.207 551.721 447.329 551.754 447.441 551.811C447.553 551.867 447.653 551.945 447.736 552.041C447.818 552.136 447.881 552.247 447.92 552.366C447.96 552.486 447.976 552.612 447.967 552.738C447.958 552.864 447.925 552.987 447.869 553.1C447.813 553.213 447.735 553.313 447.64 553.396C447.545 553.479 447.435 553.542 447.316 553.582C447.083 553.66 446.839 553.742 446.608 553.836C445.386 554.311 444.217 554.913 443.119 555.632C442.982 555.723 442.825 555.777 442.662 555.789L442.664 555.783ZM456.826 552.902C456.788 552.904 456.75 552.904 456.711 552.902C456.325 552.884 455.932 552.857 455.515 552.83C454.307 552.73 453.094 552.699 451.882 552.737C451.756 552.743 451.631 552.723 451.513 552.68C451.395 552.638 451.287 552.572 451.194 552.487C451.101 552.401 451.026 552.299 450.973 552.185C450.919 552.07 450.889 551.947 450.883 551.82C450.878 551.694 450.897 551.568 450.939 551.45C450.982 551.331 451.047 551.222 451.132 551.128C451.217 551.035 451.319 550.96 451.432 550.906C451.546 550.852 451.669 550.822 451.794 550.816C453.077 550.773 454.361 550.805 455.641 550.91C456.046 550.938 456.436 550.962 456.799 550.979C457.052 550.976 457.296 551.073 457.478 551.251C457.66 551.429 457.764 551.671 457.767 551.926C457.771 552.181 457.674 552.426 457.497 552.609C457.321 552.792 457.079 552.896 456.826 552.9V552.902ZM461.697 552.437C461.457 552.457 461.219 552.384 461.03 552.235C460.841 552.085 460.715 551.869 460.677 551.629C460.64 551.39 460.694 551.146 460.828 550.945C460.962 550.744 461.167 550.601 461.401 550.546C462.904 550.171 464.345 549.578 465.678 548.785C465.787 548.715 465.909 548.669 466.036 548.648C466.163 548.627 466.293 548.632 466.418 548.663C466.543 548.693 466.66 548.749 466.763 548.827C466.866 548.905 466.953 549.003 467.017 549.115C467.082 549.227 467.123 549.351 467.138 549.48C467.154 549.608 467.143 549.739 467.108 549.863C467.072 549.987 467.011 550.103 466.93 550.203C466.848 550.304 466.747 550.386 466.633 550.446C465.141 551.33 463.53 551.991 461.85 552.409C461.797 552.423 461.743 552.434 461.689 552.441L461.697 552.437ZM470.167 547.636C469.969 547.65 469.771 547.603 469.601 547.499C469.431 547.395 469.298 547.24 469.22 547.056C469.141 546.872 469.122 546.669 469.164 546.473C469.207 546.278 469.309 546.101 469.456 545.966C470.634 544.873 471.75 543.714 472.798 542.493C472.878 542.39 472.978 542.305 473.092 542.243C473.206 542.181 473.332 542.142 473.461 542.13C473.59 542.118 473.72 542.133 473.844 542.173C473.967 542.214 474.081 542.279 474.179 542.365C474.276 542.452 474.355 542.557 474.411 542.675C474.467 542.793 474.498 542.921 474.503 543.051C474.507 543.182 474.486 543.312 474.439 543.433C474.392 543.555 474.321 543.666 474.23 543.759C473.134 545.036 471.965 546.248 470.729 547.389C470.571 547.532 470.37 547.618 470.158 547.633L470.167 547.636ZM476.744 540.283C476.558 540.296 476.373 540.255 476.21 540.164C476.047 540.072 475.914 539.935 475.828 539.769C475.742 539.602 475.706 539.414 475.725 539.228C475.744 539.041 475.817 538.864 475.934 538.719L476.173 538.424C477.117 537.254 478.092 536.044 479.087 534.879C479.252 534.689 479.486 534.571 479.737 534.553C479.988 534.535 480.236 534.617 480.427 534.782C480.618 534.947 480.737 535.181 480.757 535.433C480.778 535.685 480.698 535.936 480.536 536.129C479.559 537.275 478.592 538.474 477.654 539.635L477.416 539.931C477.332 540.033 477.229 540.116 477.112 540.176C476.995 540.236 476.867 540.271 476.736 540.28L476.744 540.283ZM541.266 531.083C539.83 531.187 538.388 531.187 536.951 531.083C536.826 531.074 536.703 531.04 536.591 530.983C536.478 530.926 536.378 530.848 536.296 530.752C536.214 530.657 536.151 530.546 536.111 530.426C536.072 530.306 536.056 530.179 536.065 530.053C536.074 529.927 536.108 529.804 536.164 529.691C536.221 529.578 536.299 529.477 536.394 529.394C536.489 529.311 536.599 529.248 536.719 529.209C536.838 529.169 536.964 529.153 537.089 529.162C538.671 529.282 540.261 529.263 541.839 529.106H541.866C542.113 529.094 542.355 529.18 542.541 529.344C542.726 529.508 542.842 529.738 542.862 529.985C542.883 530.233 542.807 530.479 542.651 530.672C542.495 530.864 542.271 530.989 542.025 531.019C541.774 531.038 541.515 531.06 541.258 531.079L541.266 531.083ZM523.2 532.288C521.962 532.382 520.718 532.379 519.48 532.278C519.355 532.268 519.233 532.233 519.121 532.175C519.009 532.117 518.91 532.037 518.828 531.94C518.747 531.844 518.685 531.732 518.647 531.612C518.609 531.491 518.594 531.364 518.605 531.238C518.615 531.112 518.65 530.989 518.708 530.877C518.766 530.764 518.845 530.664 518.941 530.582C519.037 530.501 519.148 530.439 519.268 530.4C519.388 530.362 519.514 530.347 519.639 530.358C520.78 530.45 521.927 530.453 523.068 530.367C523.485 530.335 523.907 530.294 524.359 530.239H524.405C524.653 530.223 524.897 530.305 525.086 530.467C525.275 530.628 525.393 530.858 525.417 531.106C525.441 531.355 525.367 531.603 525.212 531.798C525.057 531.992 524.833 532.119 524.587 532.15C524.092 532.208 523.64 532.253 523.192 532.285L523.2 532.288ZM546.815 530.017C546.583 530.034 546.352 529.964 546.166 529.822C545.981 529.679 545.854 529.474 545.809 529.244C545.764 529.013 545.805 528.775 545.923 528.572C546.041 528.37 546.229 528.218 546.451 528.146C547.428 527.828 548.376 527.428 549.287 526.952C549.708 526.729 550.181 526.457 550.695 526.142C550.802 526.072 550.922 526.026 551.047 526.003C551.172 525.981 551.301 525.985 551.425 526.013C551.549 526.042 551.666 526.095 551.769 526.17C551.873 526.245 551.96 526.34 552.026 526.449C552.093 526.558 552.136 526.68 552.155 526.806C552.174 526.933 552.168 527.062 552.137 527.186C552.105 527.31 552.049 527.427 551.973 527.529C551.896 527.631 551.8 527.717 551.689 527.781C551.142 528.117 550.631 528.411 550.173 528.653C549.168 529.179 548.121 529.62 547.043 529.972C546.966 529.996 546.887 530.01 546.807 530.014L546.815 530.017ZM529.371 531.235C529.156 531.25 528.942 531.192 528.764 531.07C528.586 530.947 528.454 530.768 528.391 530.56C528.327 530.353 528.335 530.13 528.413 529.928C528.492 529.726 528.636 529.556 528.823 529.447C528.246 529.258 527.674 529.055 527.109 528.837C526.872 528.746 526.681 528.564 526.578 528.332C526.475 528.099 526.468 527.835 526.558 527.597C526.649 527.359 526.829 527.167 527.061 527.063C527.292 526.959 527.555 526.952 527.791 527.043C529.172 527.576 530.586 528.016 532.024 528.362C532.533 528.16 533.033 527.947 533.522 527.722C533.635 527.666 533.759 527.633 533.886 527.626C534.012 527.619 534.139 527.637 534.258 527.68C534.378 527.722 534.487 527.788 534.581 527.874C534.675 527.959 534.751 528.063 534.805 528.178C534.858 528.294 534.888 528.419 534.894 528.546C534.899 528.673 534.879 528.8 534.834 528.92C534.79 529.039 534.723 529.149 534.636 529.242C534.55 529.335 534.446 529.409 534.33 529.461C533.808 529.707 533.275 529.937 532.731 530.153C532.588 530.261 532.417 530.327 532.239 530.343C531.364 530.671 530.466 530.963 529.553 531.211C529.491 531.224 529.427 531.231 529.364 531.232L529.371 531.235ZM514.781 531.451C514.677 531.459 514.572 531.449 514.471 531.422C512.836 530.983 511.24 530.413 509.697 529.716C509.465 529.614 509.282 529.424 509.19 529.186C509.097 528.949 509.102 528.685 509.203 528.451C509.305 528.218 509.494 528.034 509.73 527.941C509.966 527.848 510.228 527.853 510.461 527.955C511.912 528.611 513.413 529.149 514.95 529.564C515.169 529.621 515.36 529.755 515.49 529.941C515.62 530.127 515.68 530.354 515.659 530.581C515.639 530.807 515.539 531.019 515.377 531.178C515.216 531.338 515.003 531.434 514.778 531.451H514.781ZM483.237 532.835C483.041 532.85 482.846 532.803 482.678 532.702C482.509 532.602 482.376 532.451 482.295 532.271C482.215 532.091 482.192 531.891 482.229 531.697C482.266 531.503 482.361 531.326 482.502 531.188C483.711 529.996 485.017 528.907 486.407 527.933C486.51 527.857 486.627 527.802 486.751 527.772C486.876 527.742 487.005 527.738 487.131 527.759C487.257 527.78 487.378 527.827 487.486 527.896C487.594 527.965 487.687 528.056 487.759 528.162C487.832 528.268 487.882 528.387 487.908 528.513C487.934 528.639 487.934 528.769 487.909 528.896C487.883 529.022 487.833 529.141 487.761 529.248C487.689 529.354 487.596 529.445 487.489 529.514C486.186 530.428 484.962 531.449 483.829 532.568C483.666 532.724 483.453 532.818 483.229 532.832L483.237 532.835ZM538.233 527.038C538.026 527.055 537.818 527.003 537.643 526.89C537.467 526.777 537.333 526.61 537.261 526.413C537.189 526.217 537.183 526.002 537.243 525.801C537.304 525.601 537.428 525.426 537.597 525.303C538.87 524.372 540.041 523.307 541.09 522.126C541.259 521.935 541.496 521.819 541.75 521.804C542.003 521.789 542.252 521.876 542.442 522.046C542.632 522.216 542.747 522.454 542.762 522.71C542.777 522.965 542.691 523.215 542.522 523.406C541.382 524.689 540.111 525.845 538.728 526.857C538.581 526.964 538.407 527.026 538.225 527.035L538.233 527.038ZM555.345 525.151C555.137 525.168 554.929 525.117 554.753 525.004C554.576 524.891 554.442 524.723 554.37 524.526C554.298 524.329 554.292 524.114 554.353 523.913C554.414 523.712 554.539 523.537 554.708 523.414C556.013 522.467 557.299 521.458 558.527 520.413C558.623 520.332 558.734 520.271 558.854 520.233C558.973 520.195 559.099 520.18 559.224 520.191C559.349 520.202 559.471 520.238 559.582 520.296C559.694 520.354 559.793 520.434 559.873 520.53C559.954 520.627 560.015 520.738 560.053 520.859C560.091 520.979 560.105 521.106 560.094 521.231C560.083 521.357 560.048 521.48 559.99 521.592C559.932 521.704 559.853 521.803 559.757 521.884C558.484 522.958 557.162 523.997 555.82 524.972C555.678 525.074 555.511 525.134 555.337 525.148L555.345 525.151ZM523.064 526.803C522.878 526.816 522.692 526.774 522.529 526.683C521.643 526.183 520.779 525.644 519.962 525.082C519.466 524.74 518.904 524.351 518.314 523.915C518.113 523.763 517.981 523.538 517.944 523.289C517.908 523.039 517.97 522.785 518.118 522.581C518.267 522.378 518.489 522.241 518.736 522.201C518.984 522.161 519.237 522.22 519.442 522.366C520.01 522.785 520.556 523.166 521.044 523.499C521.813 524.032 522.636 524.541 523.461 525.01C523.641 525.111 523.784 525.267 523.869 525.456C523.953 525.645 523.974 525.856 523.93 526.058C523.885 526.26 523.776 526.442 523.62 526.578C523.464 526.713 523.269 526.793 523.064 526.808V526.803ZM505.671 527.75C505.519 527.761 505.367 527.735 505.227 527.675C503.513 526.939 502.133 526.502 500.755 526.257C500.506 526.213 500.284 526.07 500.139 525.862C499.994 525.653 499.937 525.395 499.981 525.144C500.025 524.893 500.167 524.67 500.374 524.524C500.582 524.378 500.838 524.321 501.088 524.365C502.616 524.636 504.122 525.113 505.976 525.908C506.174 525.992 506.337 526.141 506.441 526.33C506.544 526.519 506.581 526.738 506.546 526.95C506.51 527.163 506.405 527.358 506.246 527.503C506.087 527.648 505.885 527.735 505.671 527.75ZM491.34 527.355C491.112 527.371 490.886 527.305 490.703 527.168C490.519 527.032 490.391 526.833 490.34 526.609C490.29 526.385 490.321 526.151 490.428 525.948C490.535 525.745 490.71 525.587 490.923 525.503C492.259 524.981 493.645 524.6 495.06 524.368C495.345 524.322 495.63 524.28 495.91 524.247C496.035 524.229 496.163 524.237 496.286 524.269C496.409 524.302 496.524 524.358 496.624 524.436C496.725 524.514 496.809 524.611 496.872 524.722C496.935 524.833 496.975 524.955 496.99 525.082C497.006 525.208 496.996 525.337 496.961 525.46C496.927 525.582 496.868 525.697 496.789 525.797C496.71 525.896 496.612 525.979 496.5 526.04C496.389 526.102 496.267 526.14 496.141 526.153C495.886 526.185 495.627 526.222 495.367 526.263C494.085 526.475 492.829 526.82 491.618 527.293C491.526 527.327 491.43 527.347 491.332 527.352L491.34 527.355ZM562.873 518.784C562.678 518.798 562.483 518.752 562.315 518.651C562.147 518.55 562.014 518.399 561.934 518.22C561.853 518.04 561.83 517.84 561.866 517.647C561.903 517.453 561.998 517.276 562.138 517.139C563.299 516.001 564.394 514.843 565.48 513.606C565.563 513.512 565.663 513.434 565.776 513.379C565.889 513.324 566.011 513.291 566.137 513.283C566.262 513.275 566.387 513.292 566.506 513.333C566.625 513.374 566.734 513.439 566.828 513.522C566.922 513.606 566.999 513.707 567.054 513.82C567.109 513.934 567.141 514.057 567.149 514.183C567.157 514.309 567.14 514.435 567.099 514.555C567.059 514.674 566.995 514.784 566.912 514.879C565.798 516.159 564.665 517.342 563.468 518.513C563.305 518.672 563.091 518.766 562.865 518.781L562.873 518.784ZM544.763 519.722C544.588 519.735 544.413 519.7 544.258 519.62C544.102 519.539 543.971 519.418 543.879 519.268C543.787 519.118 543.738 518.946 543.737 518.77C543.736 518.594 543.783 518.421 543.873 518.27C544.686 516.913 545.354 515.473 545.865 513.974C545.946 513.733 546.12 513.534 546.347 513.421C546.574 513.308 546.836 513.291 547.076 513.372C547.316 513.454 547.514 513.628 547.626 513.857C547.738 514.085 547.756 514.349 547.675 514.59C547.12 516.218 546.395 517.782 545.512 519.256C545.432 519.389 545.322 519.501 545.19 519.581C545.058 519.662 544.909 519.709 544.755 519.719L544.763 519.722ZM515.249 520.842C515.106 520.853 514.963 520.831 514.829 520.779C514.696 520.726 514.576 520.644 514.479 520.538C513.304 519.268 512.296 517.851 511.481 516.322C511.419 516.211 511.38 516.088 511.366 515.961C511.353 515.835 511.364 515.706 511.4 515.584C511.436 515.462 511.496 515.348 511.576 515.249C511.656 515.15 511.755 515.069 511.867 515.009C511.979 514.949 512.101 514.912 512.227 514.9C512.354 514.888 512.481 514.902 512.602 514.94C512.723 514.979 512.835 515.041 512.932 515.123C513.029 515.205 513.108 515.306 513.166 515.42C513.904 516.802 514.816 518.084 515.879 519.232C516.001 519.365 516.084 519.53 516.117 519.709C516.15 519.887 516.132 520.071 516.065 520.239C515.999 520.407 515.886 520.553 515.74 520.66C515.595 520.767 515.422 520.83 515.242 520.842H515.249ZM569.614 511.564C569.417 511.579 569.221 511.532 569.052 511.43C568.883 511.328 568.749 511.176 568.67 510.994C568.59 510.813 568.568 510.611 568.607 510.417C568.646 510.223 568.743 510.045 568.887 509.909C569.978 508.867 571.258 507.762 572.693 506.628C572.892 506.474 573.144 506.405 573.393 506.436C573.643 506.468 573.87 506.597 574.025 506.795C574.18 506.994 574.252 507.246 574.223 507.497C574.195 507.749 574.069 507.978 573.874 508.137C572.484 509.237 571.25 510.301 570.201 511.301C570.041 511.454 569.834 511.547 569.614 511.564ZM547.835 510.402C547.788 510.405 547.741 510.405 547.694 510.402C547.441 510.383 547.207 510.263 547.042 510.07C546.877 509.877 546.795 509.626 546.814 509.373C546.876 508.52 546.876 507.664 546.814 506.812C546.774 506.274 546.709 505.73 546.62 505.195C546.592 505.035 546.562 504.875 546.53 504.707C546.481 504.457 546.532 504.198 546.673 503.986C546.814 503.774 547.032 503.627 547.281 503.578C547.529 503.528 547.787 503.58 547.997 503.721C548.208 503.863 548.354 504.083 548.403 504.332C548.438 504.512 548.472 504.693 548.502 504.875C548.602 505.469 548.674 506.074 548.718 506.671C548.788 507.619 548.788 508.57 548.718 509.518C548.701 509.749 548.601 509.965 548.437 510.127C548.273 510.29 548.057 510.387 547.827 510.402H547.835ZM510.642 512.207C510.418 512.223 510.195 512.16 510.013 512.027C509.832 511.894 509.702 511.701 509.647 511.482C509.36 510.335 509.171 509.165 509.084 507.985C509.043 507.431 509.027 506.877 509.035 506.333C509.038 506.078 509.142 505.836 509.324 505.658C509.506 505.481 509.75 505.383 510.003 505.386C510.256 505.39 510.498 505.495 510.674 505.677C510.851 505.86 510.948 506.106 510.944 506.36C510.936 506.849 510.952 507.348 510.987 507.844C511.067 508.914 511.238 509.975 511.5 511.015C511.53 511.137 511.537 511.264 511.518 511.389C511.5 511.514 511.457 511.634 511.393 511.742C511.328 511.85 511.243 511.945 511.143 512.02C511.042 512.095 510.928 512.149 510.806 512.18C510.75 512.195 510.692 512.204 510.634 512.207H510.642ZM577.317 505.394C577.109 505.409 576.9 505.356 576.725 505.241C576.55 505.127 576.416 504.957 576.346 504.759C576.276 504.561 576.272 504.345 576.336 504.144C576.399 503.944 576.527 503.77 576.698 503.649C577.971 502.756 579.351 501.821 580.818 500.867C581.031 500.729 581.289 500.681 581.537 500.735C581.785 500.788 582.001 500.938 582.139 501.152C582.276 501.366 582.324 501.626 582.271 501.875C582.218 502.124 582.068 502.342 581.856 502.481C580.408 503.42 579.042 504.344 577.795 505.222C577.65 505.323 577.481 505.382 577.306 505.394H577.317ZM585.582 500C585.368 500.016 585.155 499.959 584.977 499.839C584.799 499.719 584.667 499.541 584.601 499.336C584.536 499.131 584.541 498.909 584.616 498.707C584.69 498.504 584.831 498.334 585.014 498.221C586.577 497.261 588.038 496.394 589.257 495.67C589.475 495.541 589.735 495.504 589.98 495.568C590.226 495.632 590.435 495.791 590.564 496.01C590.692 496.23 590.729 496.492 590.666 496.738C590.602 496.985 590.444 497.196 590.226 497.325C589.012 498.045 587.56 498.91 586.009 499.862C585.876 499.943 585.726 499.99 585.571 500H585.582ZM545.959 500.8C545.77 500.814 545.58 500.771 545.416 500.676C545.251 500.582 545.117 500.44 545.033 500.269C544.338 498.863 543.468 497.551 542.444 496.366C542.352 496.274 542.279 496.163 542.232 496.04C542.184 495.918 542.161 495.788 542.165 495.656C542.17 495.525 542.201 495.396 542.257 495.278C542.312 495.159 542.392 495.053 542.49 494.966C542.588 494.88 542.703 494.814 542.827 494.774C542.951 494.734 543.082 494.719 543.212 494.732C543.342 494.745 543.468 494.784 543.582 494.848C543.697 494.911 543.796 494.998 543.876 495.102C545.01 496.41 545.973 497.86 546.74 499.414C546.851 499.641 546.868 499.903 546.787 500.143C546.707 500.383 546.536 500.581 546.311 500.694C546.197 500.756 546.073 500.794 545.945 500.806L545.959 500.8ZM510.854 502.431C510.73 502.441 510.607 502.425 510.489 502.386C510.249 502.307 510.049 502.136 509.934 501.909C509.819 501.682 509.798 501.418 509.877 501.176C509.939 500.987 510.004 500.798 510.072 500.608C510.602 499.152 511.327 497.775 512.228 496.517C512.379 496.319 512.601 496.187 512.847 496.151C513.092 496.114 513.342 496.175 513.544 496.321C513.745 496.467 513.883 496.686 513.926 496.931C513.97 497.177 513.917 497.43 513.778 497.637C512.98 498.753 512.338 499.974 511.869 501.266C511.808 501.426 511.749 501.602 511.695 501.77C511.637 501.955 511.523 502.118 511.371 502.238C511.218 502.357 511.032 502.426 510.839 502.437L510.854 502.431ZM594.042 494.897C593.831 494.913 593.62 494.858 593.444 494.741C593.267 494.623 593.134 494.45 593.066 494.249C592.998 494.047 592.999 493.829 593.067 493.627C593.136 493.426 593.27 493.253 593.447 493.136C594.767 492.261 596.003 491.263 597.138 490.156C597.229 490.069 597.335 490 597.452 489.953C597.568 489.907 597.693 489.884 597.818 489.887C597.944 489.889 598.067 489.916 598.182 489.966C598.297 490.016 598.401 490.089 598.489 490.18C598.576 490.27 598.644 490.377 598.69 490.495C598.736 490.612 598.759 490.737 598.757 490.863C598.754 490.989 598.728 491.114 598.678 491.23C598.628 491.345 598.556 491.45 598.465 491.538C597.244 492.726 595.915 493.798 594.495 494.739C594.356 494.834 594.195 494.891 594.027 494.904L594.042 494.897ZM539.529 493.457C539.319 493.471 539.111 493.415 538.937 493.297C537.628 492.441 536.215 491.757 534.733 491.264C534.492 491.183 534.294 491.009 534.181 490.781C534.067 490.553 534.049 490.289 534.129 490.047C534.21 489.806 534.382 489.606 534.609 489.492C534.836 489.378 535.098 489.36 535.339 489.441C536.976 489.988 538.536 490.744 539.982 491.69C540.149 491.8 540.277 491.96 540.349 492.147C540.421 492.334 540.433 492.539 540.383 492.733C540.333 492.928 540.223 493.101 540.07 493.23C539.917 493.358 539.728 493.435 539.529 493.45V493.457ZM516.465 494.494C516.26 494.509 516.057 494.458 515.884 494.348C515.71 494.238 515.577 494.074 515.503 493.882C515.429 493.69 515.419 493.479 515.473 493.281C515.528 493.082 515.644 492.906 515.806 492.78C517.163 491.714 518.647 490.822 520.223 490.126C520.338 490.075 520.462 490.047 520.587 490.044C520.713 490.041 520.838 490.064 520.955 490.109C521.072 490.155 521.179 490.223 521.27 490.311C521.361 490.398 521.434 490.502 521.484 490.618C521.535 490.734 521.562 490.858 521.565 490.984C521.568 491.111 521.546 491.236 521.501 491.354C521.455 491.472 521.387 491.58 521.3 491.671C521.214 491.762 521.11 491.835 520.995 491.886C519.564 492.52 518.216 493.329 516.983 494.295C516.834 494.412 516.653 494.481 516.465 494.494ZM601.093 488.091C600.91 488.105 600.728 488.065 600.567 487.978C600.406 487.89 600.274 487.757 600.186 487.596C600.098 487.434 600.058 487.251 600.07 487.067C600.083 486.884 600.148 486.707 600.257 486.56C601.208 485.268 602.073 483.914 602.846 482.507C602.969 482.285 603.175 482.12 603.419 482.05C603.662 481.98 603.923 482.01 604.145 482.134C604.366 482.258 604.53 482.465 604.599 482.71C604.669 482.955 604.639 483.218 604.516 483.44C603.701 484.921 602.79 486.346 601.79 487.706C601.708 487.817 601.603 487.909 601.483 487.975C601.363 488.042 601.23 488.081 601.093 488.091ZM530.28 490.31C530.227 490.315 530.174 490.315 530.121 490.31C529.222 490.22 528.318 490.201 527.416 490.254H527.397C526.751 490.302 526.107 490.384 525.47 490.499C525.346 490.521 525.22 490.519 525.097 490.492C524.975 490.465 524.859 490.414 524.756 490.342C524.653 490.271 524.565 490.179 524.497 490.073C524.429 489.967 524.383 489.848 524.361 489.724C524.338 489.6 524.341 489.473 524.367 489.349C524.394 489.226 524.444 489.109 524.516 489.006C524.587 488.902 524.679 488.814 524.784 488.746C524.89 488.678 525.007 488.631 525.131 488.608C525.834 488.481 526.544 488.391 527.257 488.338H527.279C528.287 488.277 529.298 488.297 530.302 488.397C530.556 488.4 530.798 488.503 530.975 488.685C531.152 488.867 531.251 489.112 531.248 489.366C531.246 489.621 531.143 489.864 530.963 490.043C530.782 490.221 530.538 490.32 530.285 490.318L530.28 490.31ZM605.895 479.477C605.732 479.489 605.569 479.458 605.421 479.388C605.273 479.318 605.145 479.211 605.05 479.078C604.955 478.944 604.896 478.788 604.878 478.624C604.86 478.461 604.884 478.295 604.948 478.144C605.553 476.712 606.123 475.178 606.643 473.586C606.722 473.344 606.894 473.143 607.12 473.028C607.346 472.914 607.608 472.894 607.849 472.973C608.089 473.053 608.288 473.225 608.403 473.453C608.517 473.68 608.536 473.944 608.457 474.186C607.921 475.83 607.331 477.414 606.707 478.895C606.638 479.058 606.526 479.198 606.383 479.301C606.239 479.404 606.071 479.465 605.895 479.477ZM608.99 470.093C608.839 470.104 608.688 470.079 608.548 470.02C608.409 469.96 608.286 469.868 608.188 469.752C608.091 469.635 608.023 469.497 607.99 469.348C607.956 469.2 607.958 469.045 607.996 468.898C608.382 467.374 608.74 465.767 609.06 464.121C609.109 463.871 609.255 463.651 609.465 463.509C609.675 463.367 609.933 463.315 610.181 463.364C610.43 463.413 610.649 463.559 610.79 463.77C610.932 463.982 610.984 464.241 610.935 464.491C610.607 466.172 610.241 467.814 609.846 469.371C609.799 469.567 609.691 469.743 609.538 469.874C609.385 470.005 609.195 470.084 608.995 470.1L608.99 470.093ZM610.9 460.386C610.83 460.392 610.759 460.389 610.69 460.378C610.441 460.338 610.218 460.202 610.069 459.998C609.92 459.793 609.857 459.538 609.894 459.288C609.964 458.81 610.032 458.325 610.098 457.833C610.132 457.58 610.264 457.352 610.465 457.197C610.667 457.042 610.921 456.975 611.172 457.009C611.423 457.043 611.65 457.175 611.804 457.378C611.958 457.581 612.025 457.836 611.991 458.089C611.923 458.588 611.855 459.083 611.783 459.569C611.752 459.787 611.648 459.988 611.488 460.137C611.328 460.287 611.121 460.377 610.903 460.392L610.9 460.386Z" fill="#2298FF"/>
<path d="M608.5 457C622.583 457 634 445.807 634 432C634 418.193 622.583 407 608.5 407C594.417 407 583 418.193 583 432C583 445.807 594.417 457 608.5 457Z" fill="#2298FF"/>
<path d="M610.374 418H608.633C604.98 418 602 421.048 602 424.793V430H605.097V424.793C605.097 422.795 606.685 421.171 608.635 421.171H610.367C612.317 421.171 613.904 422.795 613.904 424.793V430H617V424.793C617.008 421.048 614.032 418 610.374 418Z" fill="white"/>
<path d="M621 443.077C621 444.135 619.987 445 618.737 445H600.263C599.013 445 598 444.14 598 443.077V429.923C598 428.865 599.013 428 600.263 428H618.737C619.987 428 621 428.862 621 429.923V443.077Z" fill="white"/>
<path d="M608 435.514C608.011 435.733 608.068 435.947 608.168 436.145C608.268 436.343 608.409 436.52 608.584 436.666C608.612 436.691 608.64 436.716 608.667 436.743C608.703 436.779 608.741 436.812 608.781 436.844C608.808 436.858 608.816 436.942 608.8 437.028L608.457 438.843C608.452 438.862 608.451 438.881 608.455 438.899C608.459 438.918 608.468 438.936 608.48 438.951C608.493 438.966 608.509 438.978 608.527 438.987C608.545 438.995 608.565 439 608.585 439H610.415C610.435 439 610.455 438.996 610.474 438.987C610.492 438.979 610.508 438.966 610.52 438.951C610.533 438.936 610.541 438.918 610.545 438.9C610.549 438.881 610.549 438.862 610.543 438.843L610.201 437.028C610.184 436.942 610.192 436.858 610.219 436.844C610.253 436.818 610.285 436.79 610.316 436.76C610.353 436.724 610.392 436.689 610.434 436.656C610.607 436.513 610.748 436.337 610.845 436.141C610.943 435.944 610.995 435.731 611 435.514C611 434.68 610.327 434 609.5 434C608.673 434 608 434.68 608 435.514Z" fill="#2298FF"/>
<path d="M610.97 439H609.027C608.948 439 608.87 438.987 608.798 438.962C608.726 438.936 608.663 438.899 608.612 438.852C608.559 438.803 608.522 438.746 608.501 438.685C608.48 438.623 608.477 438.559 608.492 438.497L608.847 436.948L608.822 436.927C608.798 436.909 608.775 436.891 608.75 436.875C608.583 436.746 608 436.291 608 435.636C608 434.738 608.897 434 610 434C611.103 434 612 434.734 612 435.636C611.996 435.87 611.928 436.1 611.801 436.313C611.674 436.525 611.49 436.714 611.262 436.868C611.223 436.894 611.19 436.92 611.157 436.945L611.512 438.494C611.527 438.557 611.524 438.621 611.503 438.682C611.482 438.744 611.444 438.801 611.392 438.85C611.34 438.898 611.276 438.936 611.203 438.962C611.13 438.988 611.05 439.001 610.97 439ZM609.342 438.378H610.657L610.345 437.016C610.295 436.803 610.36 436.631 610.525 436.547L610.577 436.509C610.622 436.473 610.668 436.438 610.722 436.402C610.864 436.306 610.979 436.187 611.059 436.055C611.139 435.922 611.183 435.779 611.188 435.632C611.188 435.074 610.655 434.619 609.998 434.619C609.342 434.619 608.808 435.074 608.808 435.632C608.831 435.932 609.007 436.213 609.298 436.413C609.335 436.438 609.372 436.465 609.405 436.492C609.438 436.519 609.462 436.536 609.472 436.542C609.695 436.663 609.682 436.888 609.653 437.012L609.342 438.378Z" fill="#2298FF"/>
<path d="M327.556 52H306.444C262.087 52 226 85.2647 226 126.154H226.052V183H263.608V126.154C263.608 104.354 282.847 86.618 306.496 86.618H327.504C351.153 86.618 370.393 104.354 370.393 126.154V183H407.948V126.154H408C408 85.2647 371.913 52 327.556 52Z" fill="#FEE600"/>
<path d="M407.839 184H370.329C370.035 184 369.753 183.883 369.545 183.675C369.337 183.467 369.22 183.184 369.22 182.89V126.139C369.22 104.988 350.501 87.7799 327.491 87.7799H306.509C283.501 87.7799 264.781 104.988 264.781 126.139V182.89C264.781 183.184 264.664 183.467 264.456 183.675C264.248 183.883 263.966 184 263.672 184H226.161C225.867 184 225.585 183.883 225.377 183.675C225.169 183.467 225.052 183.184 225.052 182.89V126.479C225.018 126.369 225 126.254 225 126.139C225 84.7083 261.541 51 306.458 51H327.543C372.458 51 409 84.7083 409 126.139C409.001 126.254 408.983 126.369 408.948 126.479V182.89C408.948 183.184 408.831 183.467 408.623 183.675C408.415 183.883 408.133 184 407.839 184ZM371.438 181.78H406.73V126.139C406.729 126.025 406.747 125.912 406.782 125.803C406.583 85.7501 371.114 53.22 327.543 53.22H306.458C262.894 53.22 227.417 85.7517 227.219 125.805C227.253 125.913 227.27 126.026 227.27 126.139V181.78H262.563V126.139C262.563 103.764 282.278 85.5599 306.509 85.5599H327.491C351.728 85.5599 371.438 103.764 371.438 126.139V181.78Z" fill="#101111"/>
<path d="M457 376.436C457 390.555 444.668 402 429.454 402H204.544C189.33 402 177 390.555 177 376.436V201.563C177 187.445 189.33 176 204.544 176H429.454C444.668 176 457 187.445 457 201.563V376.436Z" fill="#FEE600"/>
<path d="M429.368 403H204.63C188.843 403 176 391.047 176 376.354V201.646C176 186.953 188.843 175 204.63 175H429.368C445.156 175 458 186.953 458 201.646V376.354C458 391.047 445.156 403 429.368 403ZM204.63 177.216C190.064 177.216 178.214 188.175 178.214 201.646V376.354C178.214 389.825 190.064 400.784 204.63 400.784H429.368C443.935 400.784 455.786 389.825 455.786 376.354V201.646C455.786 188.175 443.935 177.216 429.368 177.216H204.63Z" fill="#101111"/>
<path d="M300 276.773C300 284.247 305.337 289.582 307 291.061C307.345 291.365 307.68 291.681 308.004 292.009C308.428 292.458 308.89 292.873 309.384 293.25C309.696 293.443 309.793 294.476 309.597 295.543L305.486 318.061C305.29 319.128 305.984 320 307.026 320H328.973C330.016 320 330.708 319.128 330.514 318.061L326.401 295.543C326.207 294.476 326.303 293.443 326.618 293.25C327.034 292.937 327.424 292.592 327.784 292.22C328.242 291.77 328.714 291.338 329.199 290.922C331.054 289.327 336 284.361 336 276.773C336 266.421 327.925 258 317.999 258C308.074 258 300 266.421 300 276.773Z" fill="white"/>
<path d="M327.897 321H306.101C305.713 321.005 305.327 320.925 304.974 320.766C304.62 320.607 304.307 320.372 304.057 320.079C303.79 319.755 303.598 319.377 303.496 318.973C303.393 318.568 303.383 318.146 303.464 317.736L307.549 294.932C307.638 294.481 307.655 294.019 307.598 293.563C307.13 293.172 306.683 292.755 306.262 292.315C305.963 292.008 305.645 291.701 305.314 291.4C303.597 289.844 298 284.139 298 276.118C298 265.024 306.524 256 316.999 256C327.475 256 336 265.024 336 276.118C336 284.155 331.013 289.394 328.869 291.274C328.387 291.694 327.934 292.118 327.518 292.539C327.165 292.902 326.793 293.245 326.402 293.567C326.345 294.023 326.362 294.485 326.451 294.936L330.534 317.74C330.616 318.149 330.605 318.571 330.503 318.976C330.4 319.381 330.209 319.758 329.942 320.082C329.691 320.375 329.378 320.609 329.024 320.768C328.671 320.926 328.286 321.006 327.897 321ZM317.002 258.215C307.767 258.215 300.252 266.246 300.252 276.118C300.252 283.236 305.295 288.369 306.837 289.772C307.202 290.103 307.555 290.443 307.884 290.782C308.248 291.173 308.64 291.538 309.057 291.875C310.162 292.574 309.876 294.687 309.764 295.318L305.679 318.125C305.656 318.216 305.653 318.311 305.67 318.403C305.688 318.496 305.724 318.583 305.779 318.66C305.819 318.704 305.868 318.739 305.924 318.762C305.98 318.784 306.04 318.794 306.1 318.79H327.895C327.955 318.794 328.016 318.784 328.071 318.762C328.127 318.739 328.177 318.704 328.217 318.66C328.271 318.583 328.308 318.495 328.326 318.403C328.343 318.31 328.34 318.215 328.316 318.124L324.23 295.317C324.116 294.684 323.833 292.571 324.945 291.87C325.285 291.596 325.607 291.3 325.909 290.984C326.358 290.532 326.85 290.073 327.369 289.619C329.286 287.938 333.745 283.258 333.745 276.118C333.751 266.241 326.236 258.215 317.002 258.215Z" fill="#101111"/>
<path d="M327.856 321H306.143C305.745 321.002 305.351 320.919 304.99 320.755C304.628 320.592 304.307 320.352 304.05 320.053C303.778 319.721 303.583 319.335 303.478 318.922C303.374 318.508 303.362 318.077 303.445 317.658L307.514 294.905C307.599 294.471 307.617 294.027 307.567 293.588C307.106 293.2 306.667 292.788 306.252 292.354C305.956 292.051 305.639 291.745 305.309 291.445C303.595 289.887 298 284.185 298 276.145C298 265.038 306.524 256 316.999 256C327.475 256 336 265.038 336 276.145C336 284.194 331.016 289.437 328.872 291.319C328.392 291.737 327.944 292.16 327.529 292.581C327.181 292.938 326.815 293.277 326.432 293.596C326.383 294.035 326.401 294.478 326.486 294.911L330.553 317.665C330.636 318.083 330.625 318.515 330.521 318.929C330.416 319.343 330.221 319.729 329.949 320.061C329.692 320.36 329.371 320.6 329.009 320.762C328.647 320.924 328.253 321.006 327.856 321Z" fill="white"/>
<path d="M327.791 323H306.207C305.65 323.003 305.098 322.883 304.591 322.648C304.085 322.414 303.635 322.071 303.275 321.644C302.899 321.184 302.629 320.647 302.483 320.071C302.337 319.495 302.319 318.893 302.43 318.309L306.475 295.288C306.51 295.088 306.531 294.887 306.537 294.684C306.147 294.328 305.749 293.922 305.512 293.675C305.236 293.384 304.937 293.09 304.625 292.803C302.837 291.148 297 285.083 297 276.5C297 264.646 305.972 255 316.999 255C328.026 255 337 264.646 337 276.5C337 285.096 331.783 290.684 329.542 292.688C329.086 293.095 328.655 293.506 328.262 293.908C327.964 294.211 327.697 294.47 327.466 294.684C327.472 294.887 327.493 295.088 327.528 295.288L331.573 318.309C331.684 318.894 331.665 319.496 331.518 320.072C331.372 320.648 331.101 321.186 330.725 321.645C330.367 322.076 329.918 322.421 329.41 322.655C328.903 322.889 328.35 323.007 327.791 323ZM317.002 257.236C307.203 257.236 299.23 265.878 299.23 276.5C299.23 284.173 304.517 289.66 306.138 291.158C306.483 291.477 306.813 291.797 307.122 292.126C307.504 292.531 307.906 292.917 308.328 293.28C308.542 293.454 308.684 293.702 308.727 293.975C308.796 294.542 308.776 295.115 308.67 295.676L304.627 318.697C304.573 318.96 304.577 319.231 304.638 319.492C304.7 319.752 304.817 319.996 304.983 320.207C305.134 320.384 305.323 320.526 305.535 320.622C305.747 320.719 305.978 320.767 306.211 320.764H327.794C328.027 320.77 328.258 320.722 328.471 320.626C328.683 320.53 328.872 320.387 329.022 320.208C329.187 319.997 329.305 319.753 329.367 319.492C329.429 319.23 329.433 318.959 329.38 318.696L325.335 295.676C325.23 295.116 325.211 294.543 325.279 293.977C325.322 293.703 325.465 293.455 325.68 293.28C326.028 292.985 326.36 292.671 326.676 292.341C327.104 291.904 327.57 291.458 328.064 291.018C330.083 289.215 334.776 284.191 334.776 276.5C334.773 265.878 326.8 257.236 317.002 257.236Z" fill="#101111"/>
<path d="M325.913 319H314.087C313.799 319 313.522 318.895 313.318 318.707C313.115 318.52 313 318.265 313 318C313 317.735 313.115 317.48 313.318 317.293C313.522 317.105 313.799 317 314.087 317H325.913C326.201 317 326.478 317.105 326.682 317.293C326.885 317.48 327 317.735 327 318C327 318.265 326.885 318.52 326.682 318.707C326.478 318.895 326.201 319 325.913 319Z" fill="#101111"/>
<path d="M319 260C310.177 260 303 268.075 303 278L319 260Z" fill="white"/>
<path d="M302.129 279C301.829 279 301.542 278.884 301.331 278.676C301.119 278.469 301 278.188 301 277.895C301 267.479 309.017 259 318.871 259C319.171 259 319.458 259.116 319.669 259.324C319.881 259.531 320 259.812 320 260.105C320 260.398 319.881 260.679 319.669 260.886C319.458 261.093 319.171 261.209 318.871 261.209C310.261 261.209 303.257 268.695 303.257 277.895C303.257 278.188 303.138 278.469 302.927 278.676C302.715 278.884 302.428 279 302.129 279Z" fill="#101111"/>
<path d="M447.5 357C447.102 357 446.721 356.885 446.439 356.68C446.158 356.476 446 356.198 446 355.908V232.092C446 231.802 446.158 231.524 446.439 231.32C446.721 231.115 447.102 231 447.5 231C447.898 231 448.279 231.115 448.561 231.32C448.842 231.524 449 231.802 449 232.092V355.908C449 356.198 448.842 356.476 448.561 356.68C448.279 356.885 447.898 357 447.5 357Z" fill="#101111"/>
<path d="M185.098 254C184.806 254 184.527 253.883 184.321 253.674C184.116 253.466 184 253.183 184 252.888V208.743C184 193.997 196.735 182 212.387 182H247.902C248.194 182 248.473 182.117 248.679 182.326C248.884 182.534 249 182.817 249 183.112C249 183.407 248.884 183.69 248.679 183.898C248.473 184.107 248.194 184.224 247.902 184.224H212.387C197.945 184.224 186.195 195.223 186.195 208.743V252.888C186.195 253.183 186.079 253.466 185.874 253.674C185.668 253.883 185.389 254 185.098 254Z" fill="#101111"/>
<path d="M307.984 294.994C307.789 294.994 307.599 294.966 307.436 294.913H307.429L307.413 294.907C307.202 294.83 307.06 294.716 307.015 294.587C306.97 294.459 307.027 294.327 307.174 294.219C307.32 294.112 307.545 294.037 307.8 294.01C308.056 293.984 308.322 294.008 308.542 294.078L308.56 294.084C308.738 294.144 308.872 294.231 308.943 294.333C309.015 294.434 309.019 294.544 308.955 294.647C308.892 294.749 308.764 294.839 308.591 294.902C308.418 294.966 308.209 295 307.994 295L307.984 294.994Z" fill="#101111"/>
<path d="M325.995 295C325.782 295 325.574 294.966 325.402 294.902C325.231 294.839 325.105 294.749 325.043 294.646C324.981 294.544 324.986 294.434 325.059 294.333C325.131 294.233 325.266 294.146 325.444 294.087L325.459 294.082C325.464 294.08 325.47 294.078 325.476 294.077C325.697 294.007 325.964 293.984 326.219 294.011C326.474 294.039 326.697 294.117 326.839 294.226C326.982 294.336 327.032 294.469 326.98 294.598C326.928 294.726 326.777 294.839 326.56 294.912L326.545 294.917H326.535C326.375 294.97 326.187 294.999 325.995 295Z" fill="#101111"/>
<path d="M400.643 135C400.609 135 400.577 135 400.544 135C400.248 134.974 399.975 134.832 399.784 134.604C399.594 134.377 399.501 134.083 399.527 133.788C400.326 124.592 399.041 115.334 395.766 106.705C392.569 98.2092 387.647 90.4463 381.119 83.6304C365.957 67.7944 344.12 59.3021 321.213 60.3226H321.119C320.822 60.3226 320.538 60.2047 320.328 59.9947C320.118 59.7847 320 59.4999 320 59.2029C320 58.9059 320.118 58.6211 320.328 58.4112C320.538 58.2012 320.822 58.0832 321.119 58.0832H321.146C344.689 57.0434 367.141 65.7901 382.743 82.0772C389.482 89.1155 394.572 97.1327 397.868 105.911C401.26 114.852 402.59 124.444 401.76 133.972C401.737 134.252 401.609 134.514 401.402 134.704C401.195 134.895 400.924 135.001 400.643 135Z" fill="#101111"/>
<path d="M519.685 388.774L247.715 449.858C222.659 455.486 197.778 439.76 192.143 414.733C186.507 389.701 202.255 364.854 227.319 359.226L499.289 298.142C524.345 292.514 549.226 308.241 554.86 333.268C560.485 358.296 544.741 383.146 519.685 388.774Z" fill="#2298FF"/>
<path d="M237.558 454C225.842 453.986 214.541 449.606 205.82 441.699C197.098 433.792 191.567 422.913 190.286 411.143C189.004 399.373 192.062 387.538 198.874 377.904C205.685 368.27 215.773 361.512 227.206 358.923L499.188 297.117C511.48 294.393 524.34 296.698 534.955 303.528C545.571 310.358 553.08 321.157 555.84 333.565C558.601 345.973 556.388 358.981 549.687 369.746C542.985 380.51 532.34 388.156 520.077 391.012L248.095 452.812C244.637 453.6 241.103 453.999 237.558 454ZM509.72 298.167C506.34 298.169 502.97 298.549 499.673 299.3L227.692 361.117C221.834 362.396 216.284 364.836 211.363 368.294C206.442 371.752 202.248 376.161 199.021 381.266C195.795 386.371 193.601 392.071 192.566 398.037C191.53 404.004 191.674 410.118 192.989 416.028C194.304 421.938 196.764 427.526 200.226 432.47C203.689 437.414 208.086 441.617 213.164 444.835C218.242 448.053 223.9 450.223 229.812 451.22C235.724 452.217 241.773 452.021 247.61 450.643L519.591 388.822C530.491 386.352 540.108 379.908 546.602 370.722C553.095 361.537 556.01 350.254 554.788 339.032C553.566 327.81 548.294 317.438 539.979 309.899C531.664 302.36 520.891 298.183 509.72 298.169V298.167Z" fill="#101111"/>
<path d="M277.987 410.324C276.863 411.929 275.156 413.05 273.216 413.457C271.622 413.807 270.108 413.474 268.673 412.457C267.238 411.44 266.341 410.15 265.982 408.586C265.669 407.219 266.043 405.647 267.103 403.87C268.163 402.093 271.085 400.011 275.867 397.624C270.575 397.355 267.046 396.671 265.281 395.572C263.515 394.474 262.474 393.241 262.159 391.873C261.8 390.311 262.048 388.769 262.902 387.245C263.756 385.721 264.979 384.783 266.571 384.432C268.488 383.984 270.506 384.252 272.233 385.184C274.017 386.127 276.194 387.187 278.764 388.362C278.162 386.648 277.549 385.115 276.927 383.764C276.369 382.597 275.932 381.377 275.623 380.124C275.175 378.172 275.335 376.469 276.104 375.015C276.872 373.561 278.201 372.627 280.088 372.212C282.078 371.772 283.756 372.017 285.12 372.949C286.485 373.881 287.392 375.323 287.843 377.276C288.139 378.643 288.247 380.043 288.163 381.439C288.094 383.039 288.198 384.641 288.474 386.22C290.338 383.859 291.907 381.92 293.181 380.403C294.455 378.885 295.988 377.931 297.781 377.54C299.371 377.19 300.885 377.523 302.322 378.538C303.76 379.554 304.656 380.844 305.013 382.41C305.327 383.78 304.9 385.337 303.732 387.081C302.564 388.825 299.648 390.932 294.984 393.401C300.251 393.573 303.799 394.227 305.628 395.362C307.457 396.497 308.528 397.749 308.842 399.117C309.199 400.682 308.951 402.226 308.098 403.747C307.245 405.269 306.021 406.206 304.428 406.558C302.638 406.955 300.831 406.712 299.007 405.831C297.184 404.949 294.915 403.833 292.202 402.483C292.642 404.026 293.247 405.518 294.006 406.936C294.688 408.162 295.2 409.473 295.527 410.833C295.974 412.789 295.79 414.498 294.975 415.96C294.159 417.422 292.757 418.373 290.767 418.813C288.874 419.232 287.266 418.946 285.942 417.953C284.618 416.961 283.732 415.488 283.283 413.536C283 412.226 282.852 410.892 282.841 409.553C282.816 408.072 282.701 406.43 282.497 404.625C280.681 406.777 279.178 408.677 277.987 410.324Z" fill="white"/>
<path d="M289.14 420C287.742 420.017 286.379 419.561 285.271 418.705C283.745 417.542 282.721 415.815 282.212 413.574C281.914 412.168 281.758 410.736 281.747 409.3C281.734 408.616 281.703 407.888 281.653 407.117C280.617 408.426 279.712 409.626 278.943 410.701C277.664 412.558 275.726 413.855 273.524 414.329C271.612 414.759 269.797 414.355 268.105 413.128C266.458 411.937 265.41 410.391 264.993 408.533C264.618 406.862 265.034 404.978 266.231 402.941C267.116 401.425 269.046 399.788 272.093 397.978C268.649 397.592 266.241 396.945 264.782 396.018C262.774 394.74 261.563 393.246 261.185 391.56C260.769 389.704 261.054 387.857 262.035 386.071C263.042 384.238 264.516 383.091 266.419 382.661C268.589 382.147 270.871 382.456 272.826 383.53C273.98 384.153 275.313 384.831 276.811 385.558C276.527 384.837 276.243 384.162 275.96 383.533C275.374 382.278 274.916 380.967 274.591 379.621C274.089 377.384 274.28 375.379 275.161 373.669C276.079 371.893 277.665 370.739 279.874 370.242C282.161 369.726 284.142 370.036 285.762 371.164C287.355 372.271 288.412 373.978 288.917 376.235C289.235 377.722 289.353 379.245 289.268 380.763C289.238 381.392 289.239 382.041 289.268 382.711C290.427 381.234 291.423 379.994 292.283 378.95C293.705 377.224 295.452 376.118 297.474 375.661C299.376 375.233 301.197 375.636 302.893 376.861C304.544 378.058 305.592 379.605 306.008 381.456C306.387 383.15 305.906 385.035 304.573 387.064C303.617 388.533 301.684 390.156 298.718 391.987C302.174 392.322 304.615 392.962 306.125 393.92C308.197 395.233 309.437 396.753 309.815 398.437C310.231 400.292 309.944 402.139 308.964 403.925C307.957 405.759 306.482 406.906 304.579 407.334C302.546 407.793 300.483 407.515 298.447 406.507C297.211 405.9 295.783 405.186 294.123 404.347C294.376 404.96 294.652 405.547 294.947 406.104C295.672 407.441 296.216 408.868 296.564 410.349C297.068 412.599 296.846 414.615 295.906 416.341C294.937 418.114 293.281 419.277 290.983 419.795C290.378 419.93 289.76 419.999 289.14 420ZM282.518 403.153C282.794 403.152 283.061 403.253 283.267 403.437C283.473 403.621 283.604 403.875 283.634 404.15C283.839 406.028 283.953 407.748 283.983 409.263C283.993 410.547 284.131 411.828 284.396 413.085C284.786 414.823 285.511 416.08 286.627 416.929C287.679 417.728 288.949 417.953 290.508 417.601C292.177 417.226 293.307 416.457 293.962 415.256C294.645 414.005 294.789 412.556 294.402 410.829C294.097 409.546 293.622 408.31 292.991 407.154C292.199 405.644 291.568 404.054 291.109 402.412C291.049 402.203 291.051 401.98 291.116 401.772C291.18 401.564 291.303 401.38 291.471 401.241C291.639 401.102 291.843 401.016 292.059 400.992C292.275 400.968 292.493 401.008 292.687 401.107C295.436 402.505 297.648 403.617 299.446 404.502C301.04 405.289 302.56 405.502 304.105 405.155C305.38 404.868 306.328 404.113 307.023 402.848C307.743 401.536 307.949 400.253 307.652 398.929C307.409 397.846 306.498 396.796 304.943 395.812C303.816 395.096 301.159 394.2 294.902 393.99C294.657 393.982 294.421 393.893 294.232 393.737C294.042 393.581 293.909 393.367 293.853 393.128C293.798 392.888 293.822 392.637 293.923 392.413C294.024 392.189 294.195 392.004 294.411 391.888C299.959 388.892 301.988 386.944 302.713 385.837C303.698 384.335 304.076 383.027 303.829 381.95C303.532 380.626 302.798 379.553 301.586 378.675C300.418 377.831 299.232 377.556 297.964 377.846C296.414 378.195 295.119 379.023 294.003 380.376C292.765 381.877 291.239 383.8 289.34 386.256C289.207 386.428 289.026 386.557 288.821 386.628C288.616 386.699 288.394 386.708 288.184 386.655C287.973 386.602 287.783 386.488 287.636 386.327C287.489 386.167 287.392 385.967 287.357 385.753C287.072 384.07 286.965 382.362 287.038 380.658C287.114 379.34 287.013 378.018 286.739 376.727C286.353 375.008 285.623 373.791 284.487 373.001C283.387 372.236 282.038 372.043 280.362 372.426C278.805 372.776 277.751 373.521 277.142 374.698C276.505 375.946 276.376 377.395 276.766 379.132C277.058 380.33 277.468 381.497 277.992 382.613C278.617 383.995 279.244 385.601 279.858 387.382C279.93 387.59 279.938 387.814 279.884 388.026C279.829 388.239 279.713 388.431 279.551 388.578C279.388 388.725 279.186 388.82 278.969 388.853C278.753 388.886 278.531 388.854 278.333 388.761C275.773 387.564 273.567 386.468 271.776 385.503C270.295 384.681 268.56 384.446 266.915 384.845C265.64 385.131 264.684 385.885 263.995 387.151C263.275 388.462 263.069 389.745 263.367 391.071C263.609 392.156 264.483 393.185 265.981 394.129C267.073 394.824 269.691 395.718 275.977 396.047C276.223 396.059 276.457 396.153 276.644 396.312C276.831 396.472 276.961 396.689 277.012 396.93C277.063 397.172 277.034 397.423 276.928 397.645C276.822 397.868 276.646 398.049 276.427 398.16C270.761 401.051 268.805 402.973 268.161 404.072C267.261 405.612 266.929 406.948 267.175 408.05C267.473 409.378 268.206 410.447 269.417 411.322C270.584 412.169 271.768 412.441 273.04 412.155C274.702 411.804 276.165 410.823 277.123 409.416C278.314 407.732 279.833 405.766 281.653 403.567C281.757 403.438 281.889 403.334 282.039 403.262C282.189 403.191 282.352 403.153 282.518 403.153Z" fill="#101111"/>
<path d="M335.987 398.138C334.863 399.777 333.156 400.921 331.216 401.337C329.622 401.696 328.107 401.356 326.672 400.315C325.238 399.275 324.341 397.957 323.982 396.362C323.669 394.97 324.043 393.364 325.103 391.545C326.163 389.725 329.084 387.598 333.866 385.165C328.575 384.892 325.046 384.196 323.281 383.077C321.515 381.958 320.474 380.699 320.159 379.299C319.8 377.703 320.048 376.126 320.902 374.57C321.756 373.013 322.979 372.056 324.571 371.699C326.488 371.239 328.506 371.513 330.233 372.466C332.017 373.43 334.194 374.511 336.764 375.711C336.161 373.959 335.549 372.393 334.927 371.014C334.369 369.823 333.932 368.578 333.623 367.299C333.175 365.302 333.335 363.562 334.104 362.08C334.872 360.597 336.2 359.642 338.088 359.215C340.079 358.768 341.757 359.019 343.12 359.968C344.483 360.918 345.391 362.391 345.843 364.389C346.139 365.785 346.247 367.215 346.163 368.639C346.094 370.274 346.198 371.911 346.474 373.523C348.338 371.112 349.907 369.131 351.18 367.581C352.454 366.031 353.987 365.057 355.78 364.659C357.37 364.299 358.884 364.639 360.322 365.678C361.76 366.718 362.657 368.036 363.012 369.632C363.326 371.031 362.899 372.622 361.731 374.404C360.563 376.187 357.647 378.338 352.984 380.858C358.252 381.035 361.8 381.703 363.627 382.862C365.455 384.021 366.527 385.3 366.842 386.698C367.199 388.295 366.951 389.871 366.097 391.426C365.243 392.98 364.02 393.938 362.428 394.298C360.637 394.702 358.83 394.454 357.007 393.555C355.183 392.656 352.915 391.516 350.202 390.135C350.641 391.71 351.246 393.235 352.005 394.682C352.688 395.936 353.199 397.275 353.527 398.665C353.974 400.662 353.79 402.407 352.974 403.9C352.158 405.392 350.753 406.362 348.759 406.809C346.866 407.237 345.258 406.945 343.934 405.931C342.61 404.917 341.724 403.414 341.275 401.42C340.992 400.083 340.844 398.72 340.833 397.353C340.807 395.838 340.693 394.16 340.489 392.319C338.679 394.514 337.178 396.454 335.987 398.138Z" fill="white"/>
<path d="M346.569 406.999C345.198 407.018 343.862 406.562 342.776 405.707C341.28 404.542 340.278 402.816 339.78 400.574C339.488 399.17 339.335 397.739 339.324 396.303C339.312 395.619 339.282 394.889 339.232 394.119C338.217 395.427 337.33 396.627 336.578 397.704C335.325 399.56 333.426 400.857 331.269 401.33C329.396 401.76 327.617 401.356 325.961 400.13C324.346 398.94 323.32 397.394 322.911 395.536C322.545 393.865 322.952 391.981 324.125 389.937C324.991 388.421 326.882 386.785 329.867 384.975C326.493 384.59 324.134 383.943 322.705 383.016C320.738 381.738 319.551 380.244 319.181 378.558C318.774 376.703 319.053 374.856 320.015 373.068C321 371.236 322.445 370.089 324.309 369.661C326.434 369.147 328.67 369.456 330.585 370.53C331.716 371.152 333.021 371.83 334.489 372.556C334.209 371.835 333.931 371.159 333.653 370.533C333.079 369.278 332.63 367.967 332.312 366.619C331.82 364.383 332.009 362.38 332.873 360.67C333.77 358.892 335.324 357.74 337.488 357.242C339.728 356.726 341.669 357.036 343.255 358.164C344.817 359.271 345.852 360.977 346.347 363.234C346.658 364.721 346.774 366.244 346.69 367.762C346.661 368.392 346.661 369.042 346.69 369.711C347.825 368.234 348.8 366.995 349.644 365.948C351.037 364.223 352.748 363.118 354.73 362.662C356.591 362.233 358.377 362.637 360.038 363.861C361.656 365.059 362.681 366.603 363.089 368.457C363.46 370.148 362.989 372.035 361.684 374.062C360.747 375.532 358.853 377.155 355.947 378.986C359.334 379.321 361.724 379.96 363.204 380.917C365.234 382.23 366.449 383.751 366.819 385.433C367.226 387.289 366.945 389.135 365.985 390.922C364.998 392.755 363.554 393.902 361.69 394.331C359.699 394.79 357.677 394.51 355.682 393.504C354.47 392.894 353.071 392.181 351.446 391.342C351.686 391.942 351.955 392.528 352.253 393.1C352.964 394.435 353.497 395.862 353.838 397.343C354.331 399.592 354.114 401.608 353.193 403.333C352.244 405.106 350.622 406.269 348.37 406.787C347.779 406.926 347.175 406.997 346.569 406.999ZM340.08 390.157C340.185 390.157 340.291 390.172 340.392 390.203C340.598 390.266 340.781 390.39 340.918 390.559C341.056 390.727 341.141 390.934 341.165 391.152C341.368 393.029 341.477 394.75 341.507 396.264C341.516 397.548 341.652 398.828 341.911 400.084C342.294 401.822 343.004 403.079 344.097 403.927C345.127 404.726 346.372 404.951 347.899 404.6C349.533 404.225 350.64 403.458 351.282 402.255C351.952 401.004 352.093 399.557 351.713 397.828C351.414 396.546 350.95 395.31 350.331 394.154C349.556 392.644 348.938 391.055 348.487 389.413C348.429 389.203 348.431 388.981 348.494 388.773C348.557 388.565 348.678 388.38 348.842 388.242C349.007 388.103 349.207 388.017 349.418 387.993C349.63 387.969 349.843 388.009 350.033 388.107C352.723 389.505 354.89 390.615 356.655 391.504C358.216 392.29 359.705 392.504 361.218 392.155C362.467 391.869 363.396 391.115 364.077 389.85C364.783 388.537 364.984 387.256 364.694 385.93C364.455 384.847 363.563 383.799 362.04 382.813C360.936 382.099 358.333 381.203 352.211 380.994C351.971 380.986 351.74 380.897 351.554 380.741C351.368 380.585 351.238 380.371 351.183 380.132C351.128 379.892 351.152 379.641 351.25 379.417C351.349 379.193 351.517 379.008 351.729 378.891C357.164 375.896 359.151 373.947 359.862 372.842C360.827 371.338 361.197 370.03 360.955 368.953C360.664 367.631 359.944 366.557 358.758 365.68C357.612 364.837 356.452 364.562 355.209 364.851C353.691 365.199 352.422 366.027 351.329 367.38C350.113 368.883 348.619 370.806 346.761 373.259C346.63 373.431 346.454 373.56 346.253 373.631C346.052 373.702 345.835 373.711 345.628 373.658C345.422 373.604 345.236 373.49 345.092 373.33C344.948 373.17 344.853 372.97 344.818 372.755C344.539 371.073 344.434 369.366 344.506 367.661C344.58 366.343 344.481 365.022 344.213 363.731C343.835 362.014 343.12 360.795 342.006 360.006C340.929 359.242 339.608 359.047 337.966 359.431C336.44 359.782 335.408 360.525 334.812 361.704C334.187 362.95 334.062 364.4 334.443 366.135C334.728 367.334 335.13 368.5 335.644 369.616C336.256 371 336.871 372.604 337.472 374.385C337.542 374.592 337.551 374.816 337.497 375.029C337.444 375.241 337.33 375.433 337.171 375.58C337.012 375.727 336.814 375.823 336.602 375.855C336.389 375.888 336.173 375.856 335.978 375.763C333.471 374.569 331.31 373.473 329.555 372.506C328.104 371.684 326.404 371.45 324.793 371.85C323.544 372.136 322.607 372.89 321.932 374.153C321.227 375.466 321.025 376.748 321.317 378.073C321.555 379.16 322.41 380.189 323.878 381.133C324.947 381.826 327.513 382.721 333.67 383.05C333.911 383.062 334.141 383.156 334.324 383.315C334.507 383.475 334.634 383.692 334.684 383.933C334.734 384.174 334.705 384.426 334.602 384.648C334.498 384.87 334.325 385.051 334.111 385.163C328.56 388.055 326.645 389.975 326.014 391.074C325.132 392.614 324.807 393.949 325.047 395.052C325.339 396.378 326.057 397.448 327.244 398.323C328.387 399.169 329.549 399.442 330.793 399.154C332.422 398.804 333.855 397.823 334.793 396.416C335.959 394.734 337.447 392.766 339.23 390.568C339.333 390.439 339.463 390.335 339.61 390.264C339.757 390.193 339.917 390.157 340.08 390.157Z" fill="#101111"/>
<path d="M393.31 384.944C392.234 386.618 390.599 387.786 388.742 388.209C387.217 388.577 385.767 388.23 384.392 387.169C383.017 386.108 382.158 384.762 381.816 383.133C381.517 381.713 381.875 380.074 382.889 378.216C383.903 376.358 386.7 374.188 391.28 371.704C386.213 371.424 382.835 370.711 381.144 369.565C379.453 368.419 378.456 367.137 378.152 365.72C377.809 364.091 378.046 362.482 378.864 360.892C379.682 359.302 380.853 358.326 382.377 357.962C384.212 357.495 386.144 357.774 387.797 358.745C389.506 359.729 391.59 360.833 394.05 362.058C393.474 360.271 392.888 358.673 392.292 357.263C391.757 356.047 391.339 354.777 391.044 353.471C390.616 351.435 390.77 349.659 391.504 348.144C392.238 346.628 393.51 345.654 395.32 345.221C397.225 344.762 398.83 345.018 400.136 345.988C401.443 346.959 402.312 348.463 402.743 350.501C403.027 351.926 403.13 353.386 403.05 354.841C402.984 356.509 403.084 358.18 403.347 359.825C405.132 357.365 406.634 355.343 407.854 353.761C409.074 352.178 410.542 351.184 412.258 350.776C413.781 350.411 415.231 350.758 416.607 351.817C417.983 352.876 418.841 354.221 419.183 355.854C419.483 357.281 419.074 358.904 417.956 360.724C416.838 362.543 414.046 364.739 409.581 367.311C414.623 367.491 418.02 368.173 419.772 369.357C421.523 370.54 422.548 371.845 422.849 373.272C423.19 374.904 422.953 376.513 422.136 378.1C421.319 379.686 420.148 380.663 418.623 381.03C416.909 381.443 415.178 381.19 413.432 380.271C411.686 379.352 409.514 378.189 406.914 376.78C407.335 378.388 407.914 379.944 408.641 381.422C409.294 382.7 409.784 384.067 410.097 385.485C410.525 387.524 410.348 389.306 409.568 390.83C408.788 392.355 407.444 393.346 405.534 393.805C403.722 394.242 402.182 393.944 400.914 392.909C399.646 391.874 398.798 390.339 398.369 388.303C398.098 386.938 397.956 385.547 397.945 384.151C397.921 382.607 397.811 380.894 397.616 379.013C395.885 381.25 394.45 383.228 393.31 384.944Z" fill="white"/>
<path d="M404.567 394.999C403.197 395.018 401.862 394.553 400.776 393.681C399.282 392.495 398.278 390.733 397.78 388.447C397.488 387.014 397.335 385.554 397.324 384.088C397.312 383.391 397.281 382.649 397.232 381.862C396.217 383.197 395.33 384.421 394.578 385.517C393.325 387.411 391.426 388.735 389.269 389.216C387.396 389.655 385.617 389.242 383.961 387.993C382.346 386.779 381.321 385.201 380.913 383.306C380.545 381.602 380.952 379.681 382.125 377.595C382.991 376.05 384.882 374.381 387.867 372.535C384.492 372.141 382.134 371.481 380.705 370.536C378.738 369.232 377.551 367.709 377.181 365.989C376.774 364.096 377.053 362.212 378.014 360.39C379 358.521 380.445 357.351 382.309 356.913C384.434 356.388 386.67 356.704 388.585 357.8C389.716 358.433 391.021 359.126 392.489 359.867C392.209 359.132 391.93 358.444 391.653 357.803C391.08 356.523 390.63 355.186 390.312 353.812C389.82 351.531 390.009 349.486 390.873 347.742C391.77 345.93 393.324 344.754 395.488 344.247C397.728 343.721 399.669 344.037 401.255 345.187C402.817 346.316 403.85 348.055 404.347 350.358C404.658 351.875 404.774 353.428 404.69 354.977C404.66 355.619 404.66 356.281 404.69 356.964C405.825 355.456 406.801 354.193 407.644 353.126C409.037 351.368 410.748 350.239 412.73 349.774C414.592 349.338 416.377 349.748 418.038 350.996C419.656 352.218 420.681 353.796 421.089 355.684C421.46 357.412 420.989 359.334 419.684 361.404C418.747 362.901 416.853 364.557 413.947 366.424C417.334 366.767 419.724 367.418 421.204 368.396C423.234 369.736 424.449 371.285 424.819 373.003C425.226 374.895 424.945 376.778 423.985 378.6C422.998 380.471 421.554 381.641 419.69 382.078C417.699 382.545 415.677 382.262 413.682 381.233C412.472 380.614 411.073 379.886 409.446 379.03C409.695 379.656 409.964 380.254 410.253 380.823C410.964 382.186 411.497 383.642 411.838 385.152C412.331 387.447 412.114 389.502 411.193 391.261C410.244 393.072 408.622 394.257 406.37 394.786C405.778 394.926 405.174 394.997 404.567 394.999ZM398.08 377.82C398.35 377.818 398.612 377.921 398.813 378.109C399.015 378.297 399.143 378.556 399.173 378.836C399.374 380.751 399.485 382.506 399.515 384.051C399.524 385.361 399.66 386.667 399.919 387.949C400.302 389.72 401.012 391.002 402.105 391.869C403.135 392.684 404.38 392.914 405.907 392.555C407.541 392.171 408.648 391.389 409.29 390.163C409.96 388.886 410.1 387.409 409.721 385.648C409.423 384.337 408.958 383.074 408.339 381.892C407.562 380.352 406.944 378.731 406.495 377.055C406.437 376.842 406.439 376.615 406.502 376.403C406.565 376.191 406.686 376.003 406.85 375.861C407.014 375.72 407.214 375.632 407.426 375.607C407.637 375.583 407.851 375.624 408.041 375.724C410.734 377.152 412.901 378.286 414.662 379.188C416.224 379.992 417.715 380.209 419.226 379.853C420.475 379.562 421.404 378.792 422.085 377.502C422.791 376.164 422.992 374.856 422.702 373.505C422.463 372.4 421.571 371.329 420.047 370.326C418.944 369.595 416.341 368.681 410.219 368.468C409.979 368.46 409.748 368.369 409.562 368.21C409.376 368.051 409.246 367.833 409.191 367.589C409.136 367.344 409.159 367.088 409.258 366.859C409.357 366.631 409.525 366.442 409.737 366.323C415.171 363.268 417.159 361.282 417.869 360.153C418.834 358.621 419.204 357.286 418.962 356.186C418.672 354.837 417.952 353.742 416.766 352.847C415.621 351.987 414.46 351.707 413.217 352.002C411.699 352.359 410.43 353.203 409.337 354.583C408.124 356.113 406.63 358.073 404.768 360.579C404.638 360.755 404.462 360.887 404.26 360.959C404.059 361.031 403.842 361.041 403.636 360.986C403.43 360.932 403.244 360.816 403.1 360.652C402.956 360.489 402.861 360.285 402.826 360.066C402.547 358.35 402.442 356.608 402.514 354.87C402.588 353.526 402.489 352.178 402.22 350.861C401.842 349.108 401.127 347.864 400.014 347.061C398.938 346.28 397.616 346.083 395.974 346.473C394.448 346.831 393.416 347.591 392.82 348.792C392.195 350.063 392.07 351.542 392.451 353.313C392.736 354.536 393.139 355.726 393.652 356.864C394.264 358.277 394.879 359.913 395.48 361.728C395.55 361.94 395.559 362.168 395.505 362.385C395.452 362.602 395.338 362.797 395.179 362.947C395.02 363.097 394.822 363.195 394.609 363.228C394.397 363.262 394.18 363.229 393.986 363.135C391.479 361.914 389.316 360.796 387.563 359.812C386.112 358.974 384.413 358.734 382.801 359.141C381.552 359.432 380.615 360.201 379.94 361.492C379.235 362.83 379.033 364.138 379.325 365.491C379.562 366.597 380.418 367.647 381.886 368.61C382.955 369.317 385.52 370.229 391.678 370.565C391.919 370.578 392.149 370.673 392.332 370.836C392.515 370.999 392.642 371.221 392.692 371.466C392.742 371.712 392.713 371.969 392.609 372.195C392.506 372.422 392.333 372.607 392.119 372.721C386.568 375.669 384.652 377.629 384.022 378.75C383.138 380.321 382.815 381.683 383.055 382.808C383.347 384.162 384.065 385.252 385.252 386.145C386.395 387.008 387.555 387.285 388.801 386.994C390.43 386.636 391.863 385.634 392.801 384.199C393.967 382.483 395.455 380.477 397.238 378.235C397.341 378.105 397.469 378.001 397.614 377.929C397.76 377.857 397.919 377.82 398.08 377.82Z" fill="#101111"/>
<path d="M450.65 371.135C449.549 372.773 447.878 373.918 445.98 374.333C444.42 374.693 442.938 374.353 441.532 373.312C440.126 372.272 439.248 370.954 438.898 369.36C438.593 367.963 438.959 366.358 439.995 364.544C441.032 362.729 443.892 360.603 448.574 358.165C443.394 357.892 439.94 357.194 438.211 356.07C436.483 354.946 435.464 353.688 435.156 352.294C434.805 350.699 435.047 349.123 435.883 347.566C436.719 346.01 437.917 345.053 439.475 344.696C441.351 344.237 443.327 344.511 445.017 345.463C446.763 346.427 448.895 347.508 451.41 348.708C450.821 346.957 450.221 345.392 449.612 344.012C449.066 342.821 448.638 341.576 448.336 340.297C447.898 338.301 448.055 336.562 448.806 335.08C449.558 333.597 450.858 332.643 452.708 332.216C454.656 331.767 456.297 332.018 457.633 332.969C458.968 333.919 459.857 335.392 460.298 337.387C460.588 338.783 460.693 340.213 460.611 341.638C460.545 343.271 460.647 344.908 460.916 346.52C462.74 344.109 464.276 342.129 465.523 340.58C466.77 339.03 468.271 338.055 470.026 337.656C471.583 337.298 473.065 337.638 474.472 338.677C475.879 339.717 476.757 341.034 477.106 342.63C477.413 344.028 476.995 345.618 475.852 347.401C474.708 349.184 471.851 351.337 467.279 353.86C472.436 354.036 475.909 354.704 477.699 355.863C479.488 357.022 480.537 358.301 480.845 359.698C481.195 361.296 480.952 362.872 480.116 364.425C479.28 365.978 478.083 366.935 476.524 367.297C474.771 367.699 473.003 367.451 471.217 366.553C469.432 365.656 467.212 364.516 464.556 363.134C464.986 364.709 465.578 366.233 466.321 367.68C466.989 368.933 467.49 370.273 467.811 371.662C468.247 373.659 468.068 375.404 467.271 376.896C466.475 378.387 465.102 379.359 463.151 379.809C461.298 380.237 459.724 379.945 458.428 378.931C457.132 377.918 456.264 376.414 455.825 374.422C455.548 373.084 455.403 371.721 455.392 370.354C455.368 368.841 455.256 367.164 455.055 365.322C453.284 367.516 451.815 369.454 450.65 371.135Z" fill="white"/>
<path d="M461.569 382C460.198 382.017 458.863 381.553 457.776 380.681C456.282 379.493 455.278 377.732 454.78 375.446C454.488 374.013 454.335 372.553 454.324 371.089C454.312 370.391 454.282 369.647 454.232 368.861C453.217 370.196 452.33 371.419 451.578 372.518C450.325 374.412 448.426 375.735 446.269 376.217C444.403 376.655 442.617 376.243 440.961 374.993C439.346 373.779 438.32 372.202 437.911 370.307C437.545 368.602 437.952 366.679 439.125 364.595C439.991 363.049 441.882 361.38 444.867 359.534C441.493 359.142 439.134 358.482 437.705 357.537C435.738 356.233 434.551 354.708 434.181 352.989C433.774 351.097 434.053 349.213 435.015 347.39C436 345.521 437.445 344.351 439.309 343.914C441.434 343.39 443.67 343.705 445.585 344.801C446.716 345.435 448.021 346.127 449.489 346.867C449.209 346.131 448.93 345.444 448.653 344.804C448.08 343.523 447.631 342.186 447.312 340.812C446.82 338.531 447.009 336.487 447.873 334.742C448.77 332.93 450.324 331.755 452.488 331.247C454.728 330.721 456.669 331.037 458.255 332.187C459.817 333.316 460.852 335.057 461.347 337.359C461.658 338.875 461.774 340.428 461.69 341.977C461.661 342.621 461.661 343.284 461.69 343.965C462.825 342.458 463.801 341.195 464.644 340.127C466.037 338.368 467.748 337.24 469.73 336.776C471.591 336.337 473.377 336.75 475.038 337.998C476.656 339.218 477.681 340.795 478.089 342.686C478.46 344.411 477.989 346.336 476.684 348.403C475.747 349.902 473.853 351.556 470.947 353.425C474.334 353.768 476.724 354.418 478.204 355.395C480.234 356.735 481.449 358.284 481.819 360.002C482.226 361.894 481.945 363.777 480.985 365.601C479.998 367.47 478.554 368.64 476.69 369.078C474.699 369.546 472.677 369.26 470.682 368.232C469.469 367.611 468.07 366.883 466.446 366.029C466.694 366.656 466.963 367.253 467.253 367.822C467.964 369.184 468.497 370.64 468.838 372.149C469.331 374.444 469.114 376.5 468.193 378.26C467.244 380.069 465.622 381.255 463.37 381.783C462.779 381.924 462.175 381.997 461.569 382ZM455.08 364.82C455.185 364.82 455.291 364.836 455.392 364.867C455.598 364.932 455.781 365.058 455.918 365.23C456.056 365.402 456.141 365.613 456.165 365.835C456.368 367.75 456.477 369.505 456.507 371.05C456.516 372.36 456.652 373.665 456.911 374.947C457.294 376.72 458.004 378.002 459.097 378.868C460.127 379.682 461.372 379.912 462.899 379.554C464.533 379.171 465.64 378.389 466.282 377.162C466.952 375.886 467.093 374.408 466.713 372.646C466.414 371.339 465.95 370.078 465.331 368.899C464.556 367.359 463.938 365.738 463.487 364.062C463.429 363.849 463.431 363.622 463.494 363.41C463.557 363.198 463.678 363.01 463.842 362.868C464.007 362.727 464.207 362.639 464.418 362.614C464.63 362.59 464.843 362.631 465.033 362.731C467.687 364.136 469.912 365.301 471.655 366.194C473.216 366.997 474.707 367.215 476.218 366.86C477.467 366.569 478.396 365.799 479.077 364.509C479.783 363.169 479.984 361.863 479.694 360.51C479.455 359.406 478.563 358.337 477.04 357.331C475.936 356.603 473.333 355.689 467.211 355.475C466.971 355.467 466.74 355.377 466.554 355.218C466.368 355.059 466.238 354.84 466.183 354.596C466.128 354.352 466.152 354.096 466.25 353.867C466.349 353.638 466.517 353.45 466.729 353.331C472.164 350.276 474.151 348.288 474.862 347.158C475.827 345.627 476.197 344.292 475.955 343.194C475.664 341.845 474.944 340.75 473.758 339.855C472.613 338.995 471.452 338.715 470.209 339.008C468.691 339.365 467.422 340.209 466.329 341.589C465.116 343.119 463.622 345.081 461.761 347.585C461.63 347.761 461.454 347.893 461.253 347.965C461.052 348.037 460.835 348.047 460.628 347.992C460.422 347.938 460.236 347.822 460.092 347.658C459.948 347.495 459.853 347.291 459.818 347.072C459.539 345.356 459.435 343.615 459.506 341.876C459.58 340.532 459.481 339.184 459.213 337.867C458.835 336.116 458.12 334.872 457.006 334.067C455.929 333.287 454.608 333.09 452.966 333.481C451.44 333.839 450.408 334.597 449.812 335.8C449.187 337.071 449.062 338.55 449.443 340.32C449.729 341.542 450.131 342.732 450.644 343.87C451.256 345.281 451.871 346.917 452.472 348.734C452.542 348.946 452.551 349.174 452.497 349.391C452.444 349.608 452.33 349.803 452.171 349.953C452.012 350.103 451.814 350.201 451.602 350.234C451.389 350.267 451.173 350.235 450.978 350.14C448.472 348.922 446.31 347.804 444.555 346.818C443.104 345.979 441.404 345.74 439.793 346.148C438.544 346.44 437.607 347.209 436.932 348.498C436.227 349.837 436.025 351.144 436.317 352.497C436.555 353.603 437.41 354.654 438.878 355.617C439.947 356.324 442.513 357.235 448.67 357.572C448.911 357.585 449.141 357.68 449.324 357.843C449.507 358.006 449.634 358.228 449.684 358.474C449.734 358.72 449.705 358.976 449.602 359.203C449.498 359.429 449.325 359.614 449.111 359.728C443.56 362.677 441.645 364.636 441.014 365.757C440.132 367.326 439.807 368.69 440.047 369.813C440.339 371.167 441.057 372.257 442.244 373.15C443.387 374.014 444.547 374.291 445.793 373.999C447.422 373.642 448.855 372.641 449.793 371.206C450.961 369.489 452.447 367.481 454.23 365.241C454.333 365.109 454.463 365.003 454.61 364.93C454.756 364.857 454.917 364.82 455.08 364.82Z" fill="#101111"/>
<path d="M349.098 422C348.827 421.999 348.566 421.897 348.365 421.713C348.164 421.529 348.036 421.277 348.007 421.003C347.977 420.73 348.048 420.456 348.205 420.232C348.363 420.009 348.596 419.852 348.86 419.791L510.909 383.141C526.334 379.672 537.556 372.33 543.363 361.902C548.612 352.48 549.21 340.925 545.095 328.483C545.047 328.344 545.027 328.196 545.036 328.049C545.045 327.901 545.083 327.757 545.147 327.625C545.211 327.492 545.301 327.374 545.41 327.277C545.52 327.18 545.647 327.105 545.785 327.058C545.923 327.011 546.069 326.992 546.214 327.003C546.359 327.013 546.5 327.053 546.63 327.119C546.761 327.185 546.876 327.277 546.971 327.389C547.066 327.501 547.138 327.631 547.183 327.771C551.502 340.832 550.844 353.014 545.28 363.002C539.156 373.992 527.437 381.71 511.386 385.319L349.344 421.968C349.263 421.988 349.181 421.999 349.098 422Z" fill="#101111"/>
<path d="M154.267 244C129.495 266.118 104.307 280.79 70 292.218C70.2446 294.476 71.6062 307.059 77.8465 364.744C86.1711 441.697 166.508 470.583 178.972 475C189.847 468.624 262.663 422.291 254.339 345.338C248.098 287.653 246.737 275.073 246.492 272.812C210.556 269.102 180.29 259.171 154.267 244Z" fill="#00FFA3"/>
<path d="M179.545 477C179.419 477 179.295 476.979 179.176 476.936C154.819 468.312 137.105 456.848 126.535 448.751C113.476 438.747 102.767 427.425 94.6965 415.108C84.8186 400.021 78.8258 383.29 76.8864 365.38L69.0065 292.609C68.9791 292.356 69.0391 292.1 69.1763 291.886C69.3136 291.672 69.5198 291.511 69.7607 291.431C103.576 280.183 128.769 265.784 153.998 243.281C154.172 243.125 154.391 243.029 154.623 243.006C154.855 242.982 155.089 243.033 155.291 243.15C168.68 250.917 182.881 257.179 197.636 261.821C213.093 266.705 229.857 270.097 247.46 271.909C247.713 271.935 247.949 272.047 248.129 272.227C248.31 272.407 248.423 272.644 248.45 272.897L256.33 345.669C264.887 424.744 188.804 471.748 180.098 476.849C179.93 476.947 179.74 476.999 179.545 477ZM71.3088 293.263L79.092 365.14C80.9935 382.695 86.8673 399.095 96.5504 413.882C104.473 425.991 115.021 437.127 127.88 446.984C138.254 454.93 155.593 466.159 179.428 474.667C189.849 468.472 262.412 422.398 254.129 345.92L246.346 274.043C228.916 272.197 212.313 268.804 196.975 263.957C182.318 259.348 168.201 253.158 154.871 245.496C129.818 267.709 104.736 282.043 71.3088 293.263Z" fill="#101111"/>
<path d="M213.999 328.449L202.199 319C202.147 318.959 199.193 322.841 199.152 322.893L157.772 375.177C157.762 375.19 157.75 375.2 157.736 375.208C157.722 375.215 157.707 375.22 157.692 375.222C157.676 375.224 157.66 375.222 157.645 375.218C157.63 375.213 157.616 375.206 157.603 375.196L126.588 350.359C126.576 350.349 126.562 350.341 126.547 350.337C126.532 350.332 126.516 350.331 126.5 350.333C126.484 350.335 126.469 350.339 126.455 350.347C126.442 350.355 126.429 350.366 126.42 350.378L117.026 362.246C117.016 362.259 117.009 362.273 117.005 362.288C117 362.303 116.999 362.319 117.001 362.334C117.003 362.35 117.007 362.365 117.015 362.379C117.023 362.393 117.033 362.405 117.045 362.415L148.156 387.326C148.146 387.338 148.139 387.353 148.135 387.368C148.13 387.383 148.129 387.399 148.131 387.415C148.132 387.431 148.137 387.446 148.145 387.46C148.153 387.474 148.163 387.486 148.175 387.496L159.976 396.944C159.988 396.954 160.002 396.962 160.017 396.966C160.033 396.971 160.048 396.972 160.064 396.97C160.08 396.968 160.095 396.964 160.109 396.956C160.122 396.948 160.135 396.938 160.144 396.925L160.237 397L169.707 385.035C169.726 385.01 169.735 384.979 169.732 384.947C169.728 384.916 169.713 384.887 169.689 384.867L211.137 332.492C211.181 332.44 214.048 328.49 213.999 328.449Z" fill="white"/>
<path d="M160.809 398C160.721 398.001 160.634 397.99 160.549 397.968C160.301 397.954 160.065 397.861 159.871 397.704L148.213 388.282C148.07 388.167 147.954 388.02 147.875 387.852L117.455 363.271C117.205 363.068 117.044 362.773 117.008 362.45C116.972 362.127 117.063 361.802 117.262 361.547L126.542 349.713C126.742 349.459 127.033 349.295 127.351 349.259C127.67 349.222 127.99 349.315 128.241 349.517L158.127 373.67L198.391 322.306L198.506 322.148C198.788 321.776 199.49 320.847 200.133 320.01C200.457 319.586 200.766 319.188 200.999 318.894C201.466 318.309 201.653 318.067 202.121 318.008C202.264 317.99 202.41 318.002 202.55 318.041C202.69 318.081 202.82 318.149 202.933 318.241L214.591 327.663C214.777 327.813 215.334 328.374 214.717 329.321C214.641 329.44 214.527 329.606 214.392 329.804C214.157 330.143 213.83 330.608 213.419 331.189C212.796 332.068 211.992 333.182 211.939 333.244L171.242 385.153C171.202 385.331 171.124 385.498 171.012 385.64L161.657 397.571C161.568 397.686 161.457 397.781 161.331 397.851C161.205 397.922 161.067 397.967 160.924 397.983C160.886 397.991 160.847 397.996 160.809 398ZM149.87 386.791L160.561 395.432L169.076 384.57C169.109 384.397 169.183 384.234 169.291 384.096L210.226 331.889C210.432 331.611 211.715 329.822 212.45 328.766L202.412 320.654C202.008 321.174 201.34 322.045 200.231 323.5C200.147 323.61 200.098 323.675 200.093 323.683L159.222 375.817C159.123 375.943 159 376.048 158.862 376.127C158.723 376.205 158.57 376.254 158.412 376.273C158.254 376.291 158.095 376.277 157.942 376.233C157.789 376.188 157.647 376.113 157.523 376.013L127.643 351.863L119.573 362.153L149.554 386.385C149.69 386.493 149.798 386.633 149.87 386.791Z" fill="#101111"/>
<path d="M87.0705 372C86.7938 372.002 86.5263 371.901 86.3197 371.717C86.1131 371.534 85.9822 371.281 85.9521 371.006L78.0065 298.186C77.9789 297.933 78.0394 297.677 78.1778 297.463C78.3162 297.248 78.5242 297.088 78.767 297.008C107.482 287.529 129.801 275.894 151.135 259.285C151.249 259.183 151.383 259.105 151.528 259.057C151.674 259.009 151.827 258.991 151.98 259.004C152.132 259.018 152.281 259.062 152.415 259.135C152.55 259.208 152.668 259.307 152.762 259.428C152.857 259.548 152.925 259.686 152.964 259.834C153.002 259.981 153.01 260.136 152.987 260.286C152.963 260.437 152.909 260.582 152.827 260.711C152.745 260.84 152.637 260.951 152.511 261.036C131.179 277.645 108.892 289.324 80.328 298.834L88.1746 370.759C88.1905 370.905 88.1776 371.052 88.1365 371.193C88.0953 371.333 88.0268 371.465 87.9348 371.579C87.8428 371.693 87.7291 371.788 87.6003 371.858C87.4715 371.929 87.33 371.973 87.184 371.989C87.1464 371.995 87.1085 371.998 87.0705 372Z" fill="#101111"/>
</svg>
