<svg width="142" height="87" viewBox="0 0 142 87" fill="none" xmlns="http://www.w3.org/2000/svg">
<path d="M40.6963 61.1806C40.6748 60.9611 40.6058 60.7589 40.6058 60.5394V58.6586C40.6058 57.7634 40.7523 56.8811 41.0454 56.0418C41.0454 56.0418 45.738 49.7667 47.9572 42.3939C45.5268 37.2721 43.3206 30.8982 43.3206 24.5798C43.3206 23.1122 43.4284 21.692 43.5792 20.2929C40.4122 16.979 36.1333 15.1023 31.4063 15.1023C21.6464 15.1023 13.7267 23.056 13.7267 35.417C13.7267 45.3074 21.7845 56.0415 21.7845 56.0415C22.0688 56.8808 22.2156 57.7631 22.2156 58.6583V60.5391C22.2156 62.8849 20.8452 65.0196 18.708 65.9967L5.91454 71.2173C2.94115 72.5861 0.825407 75.3147 0.23525 78.5254L0.0154578 81.3358C-0.0965065 82.7993 0.403196 84.241 1.40288 85.3128C2.39815 86.3932 3.7988 87 5.26813 87H26.1795L27.0369 75.9948L27.0929 75.6979C28.14 69.9263 31.9578 65.0196 37.2921 62.5665L40.6963 61.1806Z" fill="black"/>
<path d="M140.962 78.5254C140.376 75.3147 138.26 72.5858 135.287 71.2173L122.485 65.9967C120.348 65.0196 118.986 62.8849 118.986 60.5391V58.6583C118.986 57.7631 119.128 56.8808 119.421 56.0415C119.421 56.0415 127.474 45.3074 127.474 35.417C127.474 23.056 119.559 15.1023 109.782 15.1023C105.064 15.1023 100.785 16.979 97.6089 20.3015C97.7641 21.6961 97.8717 23.1119 97.8717 24.5795C97.8717 30.8935 95.6699 37.2677 93.2439 42.3892C95.4587 49.762 100.16 56.0415 100.16 56.0415C100.444 56.8808 100.595 57.7631 100.595 58.6583V60.5391C100.595 60.7587 100.522 60.9608 100.5 61.1804L103.672 62.4717C109.23 65.0111 113.048 69.9175 114.108 75.689L114.16 75.9904L115.013 87H135.933C137.402 87 138.803 86.3932 139.794 85.3128C140.793 84.241 141.293 82.7993 141.181 81.3358L140.962 78.5254Z" fill="black"/>
<path d="M101.448 67.9077L85.9621 61.5853C83.3767 60.3972 81.7265 57.8149 81.7265 54.9829V52.7019C81.7265 51.626 81.8988 50.5542 82.2565 49.5342C82.2565 49.5342 91.9949 36.5535 91.9949 24.5798C91.9949 9.6191 82.4162 0 70.5965 0C58.7812 0 49.1981 9.61937 49.1981 24.5798C49.1981 36.5535 58.945 49.5342 58.945 49.5342C59.2942 50.5542 59.4751 51.626 59.4751 52.7019V54.9829C59.4751 57.8149 57.8119 60.3972 55.2306 61.5853L39.7442 67.9077C36.1462 69.5561 33.5823 72.8615 32.8758 76.7523L32.0786 86.9999H70.5965H109.114L108.326 76.7523C107.61 72.8618 105.046 69.5563 101.448 67.9077Z" fill="black"/>
</svg>
