<svg width="81" height="81" viewBox="0 0 81 81" fill="none" xmlns="http://www.w3.org/2000/svg">
<g clip-path="url(#clip0_168_80)">
<path d="M11.6694 18.2933C11.6694 18.2933 7.99592 -0.828069 29.7306 0.0273824C29.7306 0.0273824 48.3337 -0.748917 46.3776 17.9888C46.3776 17.9888 43.6224 6.253 37.9378 7.59858C37.9378 7.59858 29.3143 16.9781 19.7786 7.49508C19.7725 7.48899 15.0061 4.71867 11.6694 18.2933Z" fill="black"/>
<path d="M18.7837 10.2502C18.7837 10.2502 27.4959 19.7698 39.1837 10.2502C39.1837 10.2502 42.5816 12.3813 43.7541 21.2859C43.7541 21.2859 43.6377 23.5021 46.9592 22.5675C46.9592 22.5675 49.2245 22.9572 46.6867 27.5815C46.6867 27.5815 45.6306 29.6821 45.7867 31.4295C45.7867 31.4295 46.3714 33.7219 43.2459 33.3718C43.2459 33.3718 42.0214 33.6062 42.349 36.2091C42.349 36.2091 42.698 42.7787 35.002 45.2659C35.002 45.2659 32.8898 49.2235 28.552 49.0743C27.3625 48.9723 26.2175 48.5763 25.221 47.9224C24.2245 47.2684 23.4081 46.3773 22.8459 45.3298C22.8459 45.3298 14.7184 42.8426 15.5388 35.4967C15.5388 35.4967 15.4224 33.4905 14.1184 33.2835C14.1184 33.2835 11.7735 33.8924 12.0337 30.9516C12.0337 30.9516 11.2531 26.65 10.4724 26.4947C10.4724 26.4947 8.96021 22.3483 11.4367 22.5036C11.4367 22.5036 13.7418 23.4504 14.25 21.1976C14.25 21.2098 15.1867 12.4239 18.7837 10.2502Z" fill="black"/>
<path d="M19.6806 46.6267C19.6806 46.6267 28.0439 58.5178 38.2439 46.6267V50.5052L28.9622 57.6623L19.6806 50.5052V46.6267Z" fill="black"/>
<path d="M31.1326 59.568L40.2 52.3378L43.1694 55.2907L34.05 62.7615L31.1326 59.568Z" fill="black"/>
<path d="M26.8745 59.6807L17.8072 52.4504L14.8378 55.4034L23.9572 62.8742L26.8745 59.6807Z" fill="black"/>
<path d="M28.3194 66.4269L26.599 63.6292L28.9653 61.142L31.2704 63.687L29.6296 66.4269H28.3194Z" fill="black"/>
<path d="M24.8021 81.0001L28.9837 67.048L33.1837 81.0001H24.8021Z" fill="black"/>
<path d="M35.6908 80.9999L31.8888 67.9612L33.398 65.1117H35.2347L45.7592 56.8707H49.5643C49.5643 56.8707 49.4143 58.0885 50.6847 59.1205C50.6847 59.1205 47.5959 61.5103 50.5286 64.9047C50.5286 64.9047 47.6541 67.3401 50.4306 70.8502C50.4306 70.8502 48.0459 73.6084 50.4306 76.6801C50.4306 76.6801 48.2021 78.4458 49.6469 81.0121L35.6908 80.9999Z" fill="black"/>
<path d="M12.2449 56.8708L22.8735 65.3188H24.802L26.1031 67.8577L22.249 81H6.92029e-07V63.5957C-0.00040143 62.7111 0.174448 61.8351 0.514564 61.0178C0.854681 60.2004 1.35339 59.4577 1.98222 58.8321C2.61105 58.2064 3.35766 57.7101 4.17941 57.3715C5.00116 57.0329 5.88193 56.8586 6.77143 56.8586L12.2449 56.8708Z" fill="black"/>
<path d="M79.4694 54.7032H53.7674C52.922 54.7032 52.2368 55.3847 52.2368 56.2254C52.2368 57.0661 52.922 57.7476 53.7674 57.7476H79.4694C80.3147 57.7476 81 57.0661 81 56.2254C81 55.3847 80.3147 54.7032 79.4694 54.7032Z" fill="black"/>
<path d="M79.4694 60.7401H53.7674C52.922 60.7401 52.2368 61.4216 52.2368 62.2623C52.2368 63.1029 52.922 63.7844 53.7674 63.7844H79.4694C80.3147 63.7844 81 63.1029 81 62.2623C81 61.4216 80.3147 60.7401 79.4694 60.7401Z" fill="black"/>
<path d="M79.4694 66.4269H53.7674C52.922 66.4269 52.2368 67.1084 52.2368 67.949C52.2368 68.7897 52.922 69.4712 53.7674 69.4712H79.4694C80.3147 69.4712 81 68.7897 81 67.949C81 67.1084 80.3147 66.4269 79.4694 66.4269Z" fill="black"/>
<path d="M79.4694 72.1136H53.7674C52.922 72.1136 52.2368 72.7951 52.2368 73.6358C52.2368 74.4765 52.922 75.158 53.7674 75.158H79.4694C80.3147 75.158 81 74.4765 81 73.6358C81 72.7951 80.3147 72.1136 79.4694 72.1136Z" fill="black"/>
<path d="M79.4694 77.8004H53.7674C52.922 77.8004 52.2368 78.4819 52.2368 79.3226C52.2368 80.1632 52.922 80.8447 53.7674 80.8447H79.4694C80.3147 80.8447 81 80.1632 81 79.3226C81 78.4819 80.3147 77.8004 79.4694 77.8004Z" fill="black"/>
<path d="M65 20.5C72.5313 20.5 78.5 26.3945 78.5 33.5C78.5 40.6055 72.5313 46.5 65 46.5C57.4687 46.5 51.5 40.6055 51.5 33.5C51.5 26.3945 57.4687 20.5 65 20.5Z" stroke="black" stroke-width="5"/>
<path d="M64.9434 25.4424C69.6385 25.4424 73.4452 29.2482 73.4453 33.9434C73.4453 38.6386 69.6386 42.4453 64.9434 42.4453C60.2481 42.4453 56.4414 38.6386 56.4414 33.9434C56.4416 29.2482 60.2482 25.4424 64.9434 25.4424ZM65.958 27.9102C65.958 27.9102 66.578 29.1124 66.8252 29.1895H67.1006L62.2646 37.2959H67.8975L66.5723 35.0898L66.9102 34.5225L68.9268 37.8965H61.2139L65.958 29.999H64.21C64.21 29.999 63.9848 30.0267 63.8154 30.4277L63.3145 31.3135C63.3145 31.3135 63.8009 30.9256 64.2168 30.9668L59.458 38.8799H70.7021L66.9102 32.5859L65.4072 35.083L66.1338 36.3135L64.04 36.3066L68.8545 28.2285L66.7334 28.2695C66.7334 28.2695 66.3244 28.311 65.958 27.9102ZM60.5557 30.9268H62.6865L63.2178 29.957H62.2363L62.667 29.1885H65.7656L65.208 28.1846H62.1426L60.5557 30.9268Z" fill="black"/>
</g>
<defs>
<clipPath id="clip0_168_80">
<rect width="81" height="81" fill="white"/>
</clipPath>
</defs>
</svg>
