<svg width="97" height="95" viewBox="0 0 97 95" fill="none" xmlns="http://www.w3.org/2000/svg">
<rect width="15.543" height="38.4874" rx="7.7715" transform="matrix(-0.846004 -0.533177 -0.533177 0.846004 88.8669 62.0189)" fill="black"/>
<path d="M57.088 50.7397L69.8928 58.8097L55.8952 81.02L35.8249 76.7363C28.2716 75.6458 24.1589 70.0136 23.0467 67.3338C23.0467 67.3338 11.4726 40.8806 12.002 37.976C12.5313 35.0715 14.5757 33.0319 15.5318 32.3752C18.4288 30.5311 21.5117 32.636 22.6911 33.9189C23.8704 35.2018 32.9058 51.69 32.9058 51.69C28.7217 56.6086 32.5906 60.9359 35.0481 62.4847C37.5056 64.0334 49.2092 66.7681 51.2116 65.6554C53.214 64.5428 52.1625 63.2864 51.3864 62.7973C50.6104 62.3083 40.2345 62.0834 35.5387 59.5557C30.8428 57.028 33.4119 53.8978 35.2834 52.6487C37.1549 51.3996 57.088 50.7397 57.088 50.7397Z" fill="black"/>
<path d="M87.5692 12.8582C87.9003 12.7314 88.2577 12.6849 88.6102 12.7224C88.9626 12.7601 89.3017 12.8805 89.5985 13.074C89.8908 13.2671 90.1311 13.53 90.2968 13.8386C90.4624 14.1474 90.5485 14.4932 90.5477 14.8435V47.3474C90.5485 47.6979 90.4625 48.0435 90.2968 48.3523C90.1311 48.6611 89.8908 48.9238 89.5985 49.117C89.2842 49.2762 88.9362 49.3591 88.5839 49.3592C88.2316 49.3591 87.8835 49.2761 87.5692 49.117C79.6643 45.6671 71.1374 43.869 62.5126 43.8318C53.8876 43.7947 45.3455 45.5193 37.411 48.9011C37.0967 49.0604 36.7487 49.1433 36.3964 49.1433C36.0443 49.1433 35.6968 49.0602 35.3827 48.9011C35.0903 48.7081 34.8502 48.4452 34.6845 48.1365C34.5187 47.8276 34.4317 47.4821 34.4325 47.1316V14.8435C34.4318 14.493 34.5187 14.1475 34.6845 13.8386C34.8502 13.5299 35.0903 13.2671 35.3827 13.074C35.6796 12.8805 36.0185 12.7599 36.371 12.7224C36.7234 12.685 37.0801 12.7314 37.411 12.8582C45.3307 16.274 53.8652 18.0359 62.4901 18.0359C71.115 18.0359 79.6496 16.274 87.5692 12.8582ZM62.4657 21.4383C57.3668 21.4384 53.2334 25.5727 53.2333 30.6717C53.2334 35.7706 57.3668 39.904 62.4657 39.9041C67.5647 39.904 71.699 35.7706 71.6991 30.6717C71.699 25.5727 67.5647 21.4383 62.4657 21.4383ZM63.5682 24.1189C63.9598 24.5472 64.3952 24.5108 64.4091 24.5095L66.7137 24.4646L61.4843 33.2381L63.7587 33.2449L62.9696 31.908L64.6014 29.197L68.7206 36.032H56.5096L61.6766 27.4392C61.2295 27.395 60.7076 27.8059 60.6971 27.8142L61.2401 26.8533C61.4192 26.4291 61.6566 26.3893 61.6688 26.3875H63.5682L58.4159 34.9636H66.7919L64.6024 31.2996L64.2343 31.9158L65.6737 34.3123H59.5565L64.8085 25.5086H64.5096C64.2425 25.426 63.5739 24.1299 63.5682 24.1189ZM38.1259 27.6678C36.7452 27.6678 35.6259 28.787 35.6259 30.1678C35.626 31.5484 36.7452 32.6678 38.1259 32.6678H49.205C50.5853 32.6674 51.7049 31.5482 51.705 30.1678C51.705 28.7872 50.5854 27.6681 49.205 27.6678H38.1259ZM75.3925 27.6678C74.0118 27.6678 72.8925 28.787 72.8925 30.1678C72.8926 31.5484 74.0118 32.6678 75.3925 32.6678H86.4716L86.7274 32.6551C87.9875 32.5266 88.9715 31.4617 88.9716 30.1678C88.9716 28.8737 87.9875 27.809 86.7274 27.6804L86.4716 27.6678H75.3925ZM56.3983 30.3953L56.2333 30.6687C56.2333 30.5772 56.2362 30.4859 56.2401 30.3953H56.3983ZM68.3134 28.5076C68.5047 29.0242 68.6268 29.5736 68.6747 30.1443L67.7421 28.5974L67.7968 28.5076H68.3134ZM62.7538 24.4168L63.3593 25.5076H59.993L59.5253 26.3416H60.5917L60.0155 27.3953H57.7001L59.4237 24.4168H62.7538Z" fill="black"/>
<path d="M86.9507 0.000117926C92.4258 -0.0263464 96.8784 4.40479 96.8784 9.88V17.0743C96.8783 18.5575 95.676 19.7597 94.1929 19.7599C92.7096 19.7599 91.5065 18.5576 91.5063 17.0743V15.3956C91.3944 13.717 90.2304 10.6279 86.4702 11.7023C81.7696 13.0456 68.0046 22.7811 37.7896 11.7023C35.0426 10.6951 33.6939 12.5085 33.4253 15.7316V17.4103C33.4251 18.8934 32.222 20.0958 30.7388 20.0958C29.2557 20.0957 28.0535 18.8933 28.0532 17.4103V10.1671C28.0534 4.70293 32.469 0.266028 37.9331 0.239376L86.9507 0.000117926ZM89.1235 6.9425C88.7195 6.21948 87.8056 5.96062 87.0825 6.36438C78.2891 11.2783 68.1728 12.4153 58.9956 11.7677C50.3926 11.1605 42.7297 8.99241 37.9663 7.02746L37.0532 6.63781L36.9097 6.58313C36.1867 6.34758 35.3886 6.69299 35.0747 7.40344C34.7609 8.11386 35.0427 8.93672 35.7036 9.31262L35.8403 9.38195L36.812 9.79602C41.8657 11.882 49.8464 14.129 58.7847 14.7599C68.3188 15.4327 79.0752 14.2756 88.5454 8.98352C89.2683 8.57949 89.5271 7.66554 89.1235 6.9425Z" fill="black"/>
</svg>
